<svg xmlns="http://www.w3.org/2000/svg" width="1020" height="555" viewBox="0 0 1020 555">
  <g id="Grupo_1177465" data-name="Grupo 1177465" transform="translate(-289.711 -1077)">
    <g id="Grupo_1177464" data-name="Grupo 1177464">
      <g id="Grupo_1177214" data-name="Grupo 1177214" transform="translate(0 -78)">
        <rect id="Rectángulo_454709" data-name="Rectángulo 454709" width="1020" height="555" rx="20" transform="translate(289.711 1155)" fill="#f5f9e7"/>
        <g id="Grupo_1177213" data-name="Grupo 1177213" transform="translate(-2 9.271)">
          <path id="Trazado_993061" data-name="Trazado 993061" d="M51.242,25.781V30H39.117V25.781ZM41.07,7.25V30H35.586V7.25Zm8.609,9.031v4.078H39.117V16.281ZM51.289,7.25v4.234H39.117V7.25Zm10.813,18a1.094,1.094,0,0,0-.289-.758A2.622,2.622,0,0,0,60.8,23.9a14.732,14.732,0,0,0-2.016-.555,14.183,14.183,0,0,1-2.32-.7,7.992,7.992,0,0,1-1.9-1.062A4.611,4.611,0,0,1,53.3,20.094a4.1,4.1,0,0,1-.461-1.969,4.655,4.655,0,0,1,.461-2.039,5.02,5.02,0,0,1,1.359-1.7,6.73,6.73,0,0,1,2.2-1.172,9.373,9.373,0,0,1,2.953-.43,10.137,10.137,0,0,1,3.938.7A5.853,5.853,0,0,1,66.3,15.414a4.765,4.765,0,0,1,.9,2.867H61.93a2.577,2.577,0,0,0-.211-1.094,1.466,1.466,0,0,0-.68-.7,2.737,2.737,0,0,0-1.25-.242,2.363,2.363,0,0,0-.992.2,1.784,1.784,0,0,0-.711.563,1.381,1.381,0,0,0-.266.844,1.176,1.176,0,0,0,.164.617,1.605,1.605,0,0,0,.508.5,3.823,3.823,0,0,0,.875.406,9.544,9.544,0,0,0,1.281.32,17.435,17.435,0,0,1,3.188.891,6.062,6.062,0,0,1,2.414,1.641,4.189,4.189,0,0,1,.93,2.859,4.253,4.253,0,0,1-.516,2.07A5.066,5.066,0,0,1,65.18,28.82a7.309,7.309,0,0,1-2.328,1.1,11.087,11.087,0,0,1-3.062.391,8.811,8.811,0,0,1-4.094-.867,6.435,6.435,0,0,1-2.523-2.187,4.9,4.9,0,0,1-.852-2.68h4.906a2.346,2.346,0,0,0,.383,1.281,2.044,2.044,0,0,0,.945.734,3.728,3.728,0,0,0,1.375.234,3.061,3.061,0,0,0,1.2-.2,1.664,1.664,0,0,0,.727-.555A1.379,1.379,0,0,0,62.1,25.25ZM78.555,13.094V16.75H68.367V13.094Zm-8.047-4.2h5.266V24.484a2.74,2.74,0,0,0,.156,1.039.923.923,0,0,0,.539.516,2.894,2.894,0,0,0,1.023.148q.453,0,.75-.023t.563-.07v3.766A9.237,9.237,0,0,1,77.4,30.2a9.918,9.918,0,0,1-1.562.117,7.071,7.071,0,0,1-2.883-.531,3.764,3.764,0,0,1-1.82-1.672,6.156,6.156,0,0,1-.625-2.969ZM89.43,25.75V18.781a3.367,3.367,0,0,0-.2-1.234,1.67,1.67,0,0,0-.641-.8,2.1,2.1,0,0,0-1.172-.289,2.324,2.324,0,0,0-1.016.2,1.4,1.4,0,0,0-.641.609,2.161,2.161,0,0,0-.219,1.031H80.273a4.659,4.659,0,0,1,.523-2.18,5.276,5.276,0,0,1,1.5-1.758A7.263,7.263,0,0,1,84.641,13.2a10.519,10.519,0,0,1,3.055-.414,9.156,9.156,0,0,1,3.6.672A5.644,5.644,0,0,1,93.8,15.461a5.766,5.766,0,0,1,.922,3.352v6.922a12.521,12.521,0,0,0,.188,2.508,5.771,5.771,0,0,0,.531,1.492V30H90.164a6.957,6.957,0,0,1-.555-1.914A14.892,14.892,0,0,1,89.43,25.75Zm.641-6.078.031,2.813H87.773a3.353,3.353,0,0,0-1.242.2,2.067,2.067,0,0,0-.812.555,2.144,2.144,0,0,0-.437.789,3.157,3.157,0,0,0-.133.922,1.543,1.543,0,0,0,.844,1.406,1.868,1.868,0,0,0,.875.2,3.081,3.081,0,0,0,1.492-.336,2.629,2.629,0,0,0,.945-.82,1.641,1.641,0,0,0,.328-.906l1.156,2.156q-.313.625-.711,1.266a5.672,5.672,0,0,1-.984,1.18,4.6,4.6,0,0,1-1.43.875,5.541,5.541,0,0,1-2.047.336,6.416,6.416,0,0,1-2.867-.641,5.289,5.289,0,0,1-2.086-1.789,4.6,4.6,0,0,1-.781-2.648,5.526,5.526,0,0,1,.477-2.344,4.524,4.524,0,0,1,1.445-1.75,6.924,6.924,0,0,1,2.469-1.094,14.682,14.682,0,0,1,3.531-.375Zm17.3,6.453V6h5.3V30h-4.75ZM96.992,21.75v-.328a13.634,13.634,0,0,1,.422-3.508,8.254,8.254,0,0,1,1.25-2.734,5.673,5.673,0,0,1,2.063-1.773,6.212,6.212,0,0,1,2.844-.625,4.7,4.7,0,0,1,2.516.664A5.848,5.848,0,0,1,107.93,15.3a11.048,11.048,0,0,1,1.25,2.773,21.791,21.791,0,0,1,.734,3.414v.391a20.36,20.36,0,0,1-.734,3.242,10.988,10.988,0,0,1-1.25,2.7,5.87,5.87,0,0,1-1.852,1.836,4.769,4.769,0,0,1-2.539.664,6.039,6.039,0,0,1-2.836-.641,5.74,5.74,0,0,1-2.047-1.8,8.466,8.466,0,0,1-1.242-2.719A13.038,13.038,0,0,1,96.992,21.75Zm5.266-.328v.328a11.637,11.637,0,0,0,.125,1.766,4.9,4.9,0,0,0,.43,1.43,2.427,2.427,0,0,0,.813.961,2.193,2.193,0,0,0,1.258.344,2.776,2.776,0,0,0,1.68-.484,2.832,2.832,0,0,0,.984-1.375,5.54,5.54,0,0,0,.273-2.094V21.063a7.534,7.534,0,0,0-.141-1.82,3.677,3.677,0,0,0-.539-1.32,2.4,2.4,0,0,0-.922-.8,2.919,2.919,0,0,0-1.3-.273,2.164,2.164,0,0,0-1.242.344,2.486,2.486,0,0,0-.82.961A5.069,5.069,0,0,0,102.4,19.6,10.994,10.994,0,0,0,102.258,21.422Zm12.734.3v-.328a10.642,10.642,0,0,1,.531-3.43,7.8,7.8,0,0,1,1.563-2.727,7.1,7.1,0,0,1,2.547-1.8,8.833,8.833,0,0,1,3.5-.648,8.934,8.934,0,0,1,3.523.648,7.086,7.086,0,0,1,2.555,1.8,7.8,7.8,0,0,1,1.563,2.727,10.642,10.642,0,0,1,.531,3.43v.328a10.591,10.591,0,0,1-.531,3.414,7.879,7.879,0,0,1-1.562,2.734,6.976,6.976,0,0,1-2.547,1.8,8.928,8.928,0,0,1-3.5.641,9.044,9.044,0,0,1-3.516-.641,6.949,6.949,0,0,1-2.562-1.8,7.879,7.879,0,0,1-1.562-2.734A10.591,10.591,0,0,1,114.992,21.719Zm5.266-.328v.328A10.648,10.648,0,0,0,120.4,23.5a4.762,4.762,0,0,0,.469,1.445,2.443,2.443,0,0,0,.891.961,2.654,2.654,0,0,0,1.406.344,2.581,2.581,0,0,0,1.383-.344,2.463,2.463,0,0,0,.883-.961A4.762,4.762,0,0,0,125.9,23.5a10.648,10.648,0,0,0,.141-1.781v-.328a10.309,10.309,0,0,0-.141-1.742,4.961,4.961,0,0,0-.469-1.453,2.533,2.533,0,0,0-.891-.992,2.564,2.564,0,0,0-1.406-.359,2.493,2.493,0,0,0-1.383.359,2.555,2.555,0,0,0-.883.992,4.961,4.961,0,0,0-.469,1.453A10.309,10.309,0,0,0,120.258,21.391Z" transform="translate(716.711 1204)" fill="#12263f"/>
          <path id="Trazado_993062" data-name="Trazado 993062" d="M44.782,14.176H41.247V11.529h3.535a2.448,2.448,0,0,0,1.172-.244,1.509,1.509,0,0,0,.659-.679,2.228,2.228,0,0,0,.21-.981,2.762,2.762,0,0,0-.21-1.084,1.81,1.81,0,0,0-.659-.806,2.035,2.035,0,0,0-1.172-.308H42.536V19H39.108V4.781h5.674a6.452,6.452,0,0,1,2.944.625,4.59,4.59,0,0,1,1.9,1.714,4.677,4.677,0,0,1,.664,2.485,4.321,4.321,0,0,1-.664,2.4,4.39,4.39,0,0,1-1.9,1.6A6.966,6.966,0,0,1,44.782,14.176Zm6.66-.352v-.205a6.651,6.651,0,0,1,.332-2.144,4.873,4.873,0,0,1,.977-1.7,4.438,4.438,0,0,1,1.592-1.128,5.521,5.521,0,0,1,2.188-.405,5.584,5.584,0,0,1,2.2.405,4.429,4.429,0,0,1,1.6,1.128,4.873,4.873,0,0,1,.977,1.7,6.651,6.651,0,0,1,.332,2.144v.205a6.619,6.619,0,0,1-.332,2.134,4.924,4.924,0,0,1-.977,1.709,4.36,4.36,0,0,1-1.592,1.128,5.58,5.58,0,0,1-2.187.4,5.653,5.653,0,0,1-2.2-.4,4.343,4.343,0,0,1-1.6-1.128,4.924,4.924,0,0,1-.977-1.709A6.619,6.619,0,0,1,51.442,13.824Zm3.291-.205v.205a6.655,6.655,0,0,0,.088,1.113,2.976,2.976,0,0,0,.293.9,1.527,1.527,0,0,0,.557.6,1.659,1.659,0,0,0,.879.215,1.613,1.613,0,0,0,.864-.215,1.539,1.539,0,0,0,.552-.6,2.976,2.976,0,0,0,.293-.9,6.655,6.655,0,0,0,.088-1.113v-.205a6.443,6.443,0,0,0-.088-1.089,3.1,3.1,0,0,0-.293-.908,1.583,1.583,0,0,0-.557-.62,1.6,1.6,0,0,0-.879-.225,1.558,1.558,0,0,0-.864.225,1.6,1.6,0,0,0-.552.62,3.1,3.1,0,0,0-.293.908A6.443,6.443,0,0,0,54.733,13.619ZM63.122,4h3.291V16.4L66.071,19H63.122ZM72.9,13.6V13.8a9.108,9.108,0,0,1-.244,2.188,5,5,0,0,1-.752,1.7A3.464,3.464,0,0,1,70.622,18.8,4,4,0,0,1,68.8,19.2a3.1,3.1,0,0,1-1.641-.415,3.454,3.454,0,0,1-1.143-1.152,6.839,6.839,0,0,1-.742-1.709,15.76,15.76,0,0,1-.449-2.085V13.59a15.835,15.835,0,0,1,.449-2.075,6.839,6.839,0,0,1,.742-1.709A3.471,3.471,0,0,1,67.15,8.653a3.057,3.057,0,0,1,1.626-.415,3.968,3.968,0,0,1,1.841.4A3.522,3.522,0,0,1,71.9,9.762a5.058,5.058,0,0,1,.752,1.7A8.81,8.81,0,0,1,72.9,13.6Zm-3.291.205V13.6a8.135,8.135,0,0,0-.068-1.084,3.235,3.235,0,0,0-.244-.9A1.462,1.462,0,0,0,68.8,11a1.439,1.439,0,0,0-.84-.225,1.989,1.989,0,0,0-.884.176,1.389,1.389,0,0,0-.566.5,2.22,2.22,0,0,0-.3.8,5.406,5.406,0,0,0-.078,1.069V14.1a4.648,4.648,0,0,0,.146,1.387,1.6,1.6,0,0,0,.576.879,1.855,1.855,0,0,0,1.123.3,1.589,1.589,0,0,0,.854-.205,1.269,1.269,0,0,0,.493-.586,3.144,3.144,0,0,0,.225-.908A10.576,10.576,0,0,0,69.606,13.8ZM77.829,4V19h-3.3V4Zm7.51,12.344V11.988a2.1,2.1,0,0,0-.127-.771,1.044,1.044,0,0,0-.4-.5,1.312,1.312,0,0,0-.732-.181,1.452,1.452,0,0,0-.635.127.873.873,0,0,0-.4.381,1.351,1.351,0,0,0-.137.645H79.616a2.912,2.912,0,0,1,.327-1.362,3.3,3.3,0,0,1,.938-1.1A4.539,4.539,0,0,1,82.346,8.5a6.574,6.574,0,0,1,1.909-.259,5.722,5.722,0,0,1,2.251.42,3.527,3.527,0,0,1,1.567,1.255,3.6,3.6,0,0,1,.576,2.095v4.326a7.826,7.826,0,0,0,.117,1.567,3.607,3.607,0,0,0,.332.933V19H85.8a4.348,4.348,0,0,1-.347-1.2A9.308,9.308,0,0,1,85.339,16.344Zm.4-3.8.02,1.758H84.3a2.1,2.1,0,0,0-.776.127,1.292,1.292,0,0,0-.508.347,1.34,1.34,0,0,0-.273.493,1.973,1.973,0,0,0-.083.576.965.965,0,0,0,.527.879,1.167,1.167,0,0,0,.547.127,1.926,1.926,0,0,0,.933-.21,1.643,1.643,0,0,0,.591-.513,1.026,1.026,0,0,0,.205-.566l.723,1.348q-.2.391-.444.791a3.545,3.545,0,0,1-.615.737,2.873,2.873,0,0,1-.894.547,3.463,3.463,0,0,1-1.279.21,4.01,4.01,0,0,1-1.792-.4,3.306,3.306,0,0,1-1.3-1.118,2.872,2.872,0,0,1-.488-1.655,3.454,3.454,0,0,1,.3-1.465,2.827,2.827,0,0,1,.9-1.094,4.327,4.327,0,0,1,1.543-.684,9.176,9.176,0,0,1,2.207-.234Zm9.2,4.111a1.679,1.679,0,0,0,.786-.171,1.163,1.163,0,0,0,.5-.488,1.525,1.525,0,0,0,.161-.767h3.1a3.637,3.637,0,0,1-.581,2.085A3.957,3.957,0,0,1,97.3,18.7a5.133,5.133,0,0,1-2.28.493,5.379,5.379,0,0,1-2.168-.405A4.219,4.219,0,0,1,91.3,17.657a4.831,4.831,0,0,1-.928-1.7,7.02,7.02,0,0,1-.308-2.119v-.225a7.067,7.067,0,0,1,.308-2.124A4.825,4.825,0,0,1,91.3,9.776a4.228,4.228,0,0,1,1.543-1.133A5.317,5.317,0,0,1,95,8.238a5.2,5.2,0,0,1,2.329.5,3.765,3.765,0,0,1,1.587,1.445,4.274,4.274,0,0,1,.566,2.295h-3.1a2.13,2.13,0,0,0-.146-.859,1.358,1.358,0,0,0-.483-.61,1.421,1.421,0,0,0-.835-.229,1.275,1.275,0,0,0-1.294.845,3.313,3.313,0,0,0-.215.9,10.326,10.326,0,0,0-.054,1.084v.225a10.569,10.569,0,0,0,.054,1.1,3.081,3.081,0,0,0,.22.9,1.393,1.393,0,0,0,.479.605A1.416,1.416,0,0,0,94.938,16.656Zm9.414-8.223V19h-3.3V8.434Zm-3.5-2.725a1.469,1.469,0,0,1,.508-1.152,2.159,2.159,0,0,1,2.637,0,1.469,1.469,0,0,1,.508,1.152A1.469,1.469,0,0,1,104,6.861a2.159,2.159,0,0,1-2.637,0A1.469,1.469,0,0,1,100.856,5.709Zm5.107,8.115v-.205a6.651,6.651,0,0,1,.332-2.144,4.873,4.873,0,0,1,.977-1.7,4.438,4.438,0,0,1,1.592-1.128,5.521,5.521,0,0,1,2.188-.405,5.584,5.584,0,0,1,2.2.405,4.429,4.429,0,0,1,1.6,1.128,4.873,4.873,0,0,1,.977,1.7,6.651,6.651,0,0,1,.332,2.144v.205a6.619,6.619,0,0,1-.332,2.134,4.924,4.924,0,0,1-.977,1.709,4.36,4.36,0,0,1-1.592,1.128,5.58,5.58,0,0,1-2.187.4,5.653,5.653,0,0,1-2.2-.4,4.343,4.343,0,0,1-1.6-1.128,4.924,4.924,0,0,1-.977-1.709A6.619,6.619,0,0,1,105.964,13.824Zm3.291-.205v.205a6.655,6.655,0,0,0,.088,1.113,2.976,2.976,0,0,0,.293.9,1.527,1.527,0,0,0,.557.6,1.659,1.659,0,0,0,.879.215,1.613,1.613,0,0,0,.864-.215,1.539,1.539,0,0,0,.552-.6,2.976,2.976,0,0,0,.293-.9,6.655,6.655,0,0,0,.088-1.113v-.205a6.443,6.443,0,0,0-.088-1.089,3.1,3.1,0,0,0-.293-.908,1.583,1.583,0,0,0-.557-.62,1.6,1.6,0,0,0-.879-.225,1.558,1.558,0,0,0-.864.225,1.6,1.6,0,0,0-.552.62,3.1,3.1,0,0,0-.293.908A6.443,6.443,0,0,0,109.255,13.619Zm.313-6.553L111.5,4h3.477l-2.725,3.066Zm11.279,3.623V19h-3.291V8.434h3.086Zm-.391,2.666-.771.02a7.352,7.352,0,0,1,.293-2.163,4.769,4.769,0,0,1,.83-1.616,3.568,3.568,0,0,1,1.284-1.011,3.908,3.908,0,0,1,1.665-.347,4.02,4.02,0,0,1,1.343.215,2.6,2.6,0,0,1,1.055.693,3.193,3.193,0,0,1,.684,1.265,6.743,6.743,0,0,1,.239,1.938V19h-3.311V12.34a2.149,2.149,0,0,0-.176-.972.941.941,0,0,0-.508-.464,2.278,2.278,0,0,0-.811-.127,1.747,1.747,0,0,0-.859.2,1.5,1.5,0,0,0-.562.542,2.5,2.5,0,0,0-.3.815A5.288,5.288,0,0,0,120.456,13.355Z" transform="translate(415.711 1299)" fill="#12263f"/>
          <path id="Trazado_993065" data-name="Trazado 993065" d="M48.249,4.781V19H44.821V4.781Zm4.277,0V7.428H40.642V4.781ZM58.073,19.2a6.177,6.177,0,0,1-2.3-.405,4.832,4.832,0,0,1-2.778-2.759,5.3,5.3,0,0,1-.366-1.963V13.7a6.928,6.928,0,0,1,.322-2.153A5.024,5.024,0,0,1,53.9,9.811,4.32,4.32,0,0,1,55.5,8.653a5.557,5.557,0,0,1,2.227-.415,5.3,5.3,0,0,1,2.012.361,4.137,4.137,0,0,1,1.509,1.035,4.542,4.542,0,0,1,.947,1.631,6.617,6.617,0,0,1,.327,2.148v1.338H53.884V12.691H59.3v-.254a1.871,1.871,0,0,0-.181-.9,1.306,1.306,0,0,0-.552-.566,1.826,1.826,0,0,0-.879-.2,1.45,1.45,0,0,0-1.421.874,3.335,3.335,0,0,0-.269.933,7.6,7.6,0,0,0-.078,1.113v.371a3.321,3.321,0,0,0,.161,1.064,2.262,2.262,0,0,0,.469.815,2.117,2.117,0,0,0,.742.522,2.5,2.5,0,0,0,.991.186,3.644,3.644,0,0,0,1.328-.254,2.654,2.654,0,0,0,1.123-.84l1.494,1.777a3.905,3.905,0,0,1-.913.889,5.056,5.056,0,0,1-1.411.7A5.882,5.882,0,0,1,58.073,19.2Zm9.1-8.145V19H63.884V8.434H66.96Zm3.125-2.7-.059,3.057-.527-.049q-.332-.029-.557-.029a3.293,3.293,0,0,0-.991.132,1.715,1.715,0,0,0-.684.391,1.508,1.508,0,0,0-.391.649,2.868,2.868,0,0,0-.112.908l-.6-.391a8.305,8.305,0,0,1,.21-1.938,5.234,5.234,0,0,1,.6-1.514,2.935,2.935,0,0,1,.947-.986,2.316,2.316,0,0,1,1.25-.347,3.974,3.974,0,0,1,.483.029A2.376,2.376,0,0,1,70.3,8.355Zm4.453,2.7V19H71.462V8.434h3.076Zm3.125-2.7-.059,3.057-.527-.049q-.332-.029-.557-.029a3.293,3.293,0,0,0-.991.132,1.715,1.715,0,0,0-.684.391,1.508,1.508,0,0,0-.391.649,2.868,2.868,0,0,0-.112.908l-.6-.391a8.305,8.305,0,0,1,.21-1.938,5.234,5.234,0,0,1,.6-1.514,2.935,2.935,0,0,1,.947-.986,2.316,2.316,0,0,1,1.25-.347,3.974,3.974,0,0,1,.483.029A2.376,2.376,0,0,1,77.878,8.355Zm4.609.078V19h-3.3V8.434Zm-3.5-2.725A1.469,1.469,0,0,1,79.5,4.557a2.159,2.159,0,0,1,2.637,0,1.469,1.469,0,0,1,.508,1.152,1.469,1.469,0,0,1-.508,1.152,2.159,2.159,0,0,1-2.637,0A1.469,1.469,0,0,1,78.991,5.709ZM90.075,8.434v2.285H83.708V8.434ZM85.046,5.807h3.291v9.746a1.713,1.713,0,0,0,.1.649.577.577,0,0,0,.337.322,1.809,1.809,0,0,0,.64.093q.283,0,.469-.015t.352-.044v2.354a5.773,5.773,0,0,1-.879.21,6.2,6.2,0,0,1-.977.073,4.419,4.419,0,0,1-1.8-.332,2.353,2.353,0,0,1-1.138-1.045,3.848,3.848,0,0,1-.391-1.855Zm5.635,8.018v-.205a6.651,6.651,0,0,1,.332-2.144,4.873,4.873,0,0,1,.977-1.7,4.438,4.438,0,0,1,1.592-1.128,5.521,5.521,0,0,1,2.188-.405,5.584,5.584,0,0,1,2.2.405,4.429,4.429,0,0,1,1.6,1.128,4.873,4.873,0,0,1,.977,1.7,6.651,6.651,0,0,1,.332,2.144v.205a6.619,6.619,0,0,1-.332,2.134,4.924,4.924,0,0,1-.977,1.709,4.36,4.36,0,0,1-1.592,1.128,5.58,5.58,0,0,1-2.187.4,5.653,5.653,0,0,1-2.2-.4,4.343,4.343,0,0,1-1.6-1.128,4.924,4.924,0,0,1-.977-1.709A6.619,6.619,0,0,1,90.681,13.824Zm3.291-.205v.205a6.655,6.655,0,0,0,.088,1.113,2.976,2.976,0,0,0,.293.9,1.527,1.527,0,0,0,.557.6,1.659,1.659,0,0,0,.879.215,1.613,1.613,0,0,0,.864-.215,1.539,1.539,0,0,0,.552-.6,2.976,2.976,0,0,0,.293-.9,6.655,6.655,0,0,0,.088-1.113v-.205A6.443,6.443,0,0,0,97.5,12.53a3.1,3.1,0,0,0-.293-.908,1.583,1.583,0,0,0-.557-.62,1.6,1.6,0,0,0-.879-.225A1.558,1.558,0,0,0,94.9,11a1.6,1.6,0,0,0-.552.62,3.1,3.1,0,0,0-.293.908A6.443,6.443,0,0,0,93.972,13.619Zm11.68-2.568V19H102.36V8.434h3.076Zm3.125-2.7-.059,3.057-.527-.049q-.332-.029-.557-.029a3.293,3.293,0,0,0-.991.132,1.715,1.715,0,0,0-.684.391,1.508,1.508,0,0,0-.391.649,2.868,2.868,0,0,0-.112.908l-.6-.391a8.305,8.305,0,0,1,.21-1.938,5.234,5.234,0,0,1,.6-1.514,2.935,2.935,0,0,1,.947-.986,2.316,2.316,0,0,1,1.25-.347,3.974,3.974,0,0,1,.483.029A2.376,2.376,0,0,1,108.776,8.355Zm4.609.078V19h-3.3V8.434Zm-3.5-2.725a1.469,1.469,0,0,1,.508-1.152,2.159,2.159,0,0,1,2.637,0,1.469,1.469,0,0,1,.508,1.152,1.469,1.469,0,0,1-.508,1.152,2.159,2.159,0,0,1-2.637,0A1.469,1.469,0,0,1,109.89,5.709ZM115,13.824v-.205a6.651,6.651,0,0,1,.332-2.144,4.873,4.873,0,0,1,.977-1.7A4.438,4.438,0,0,1,117.9,8.644a5.521,5.521,0,0,1,2.188-.405,5.584,5.584,0,0,1,2.2.405,4.429,4.429,0,0,1,1.6,1.128,4.873,4.873,0,0,1,.977,1.7,6.651,6.651,0,0,1,.332,2.144v.205a6.619,6.619,0,0,1-.332,2.134,4.924,4.924,0,0,1-.977,1.709,4.36,4.36,0,0,1-1.592,1.128,5.58,5.58,0,0,1-2.187.4,5.653,5.653,0,0,1-2.2-.4,4.343,4.343,0,0,1-1.6-1.128,4.924,4.924,0,0,1-.977-1.709A6.619,6.619,0,0,1,115,13.824Zm3.291-.205v.205a6.655,6.655,0,0,0,.088,1.113,2.976,2.976,0,0,0,.293.9,1.527,1.527,0,0,0,.557.6,1.659,1.659,0,0,0,.879.215,1.613,1.613,0,0,0,.864-.215,1.539,1.539,0,0,0,.552-.6,2.976,2.976,0,0,0,.293-.9,6.655,6.655,0,0,0,.088-1.113v-.205a6.443,6.443,0,0,0-.088-1.089,3.1,3.1,0,0,0-.293-.908,1.583,1.583,0,0,0-.557-.62,1.6,1.6,0,0,0-.879-.225,1.558,1.558,0,0,0-.864.225,1.6,1.6,0,0,0-.552.62,3.1,3.1,0,0,0-.293.908A6.443,6.443,0,0,0,118.288,13.619Z" transform="translate(705.711 1354)" fill="#12263f"/>
          <path id="Trazado_993063" data-name="Trazado 993063" d="M62.109,7.25,66.3,17.125,70.5,7.25h5.906L69.094,21.828V30H63.516V21.828L56.188,7.25Zm32.547,18a1.094,1.094,0,0,0-.289-.758,2.622,2.622,0,0,0-1.008-.594,14.732,14.732,0,0,0-2.016-.555,14.183,14.183,0,0,1-2.32-.7,7.992,7.992,0,0,1-1.9-1.062,4.611,4.611,0,0,1-1.273-1.484,4.1,4.1,0,0,1-.461-1.969,4.655,4.655,0,0,1,.461-2.039,5.02,5.02,0,0,1,1.359-1.7,6.73,6.73,0,0,1,2.2-1.172,9.373,9.373,0,0,1,2.953-.43,10.137,10.137,0,0,1,3.938.7,5.853,5.853,0,0,1,2.555,1.938,4.765,4.765,0,0,1,.9,2.867H94.484a2.577,2.577,0,0,0-.211-1.094,1.466,1.466,0,0,0-.68-.7,2.737,2.737,0,0,0-1.25-.242,2.363,2.363,0,0,0-.992.2,1.784,1.784,0,0,0-.711.563,1.381,1.381,0,0,0-.266.844,1.176,1.176,0,0,0,.164.617,1.605,1.605,0,0,0,.508.5,3.823,3.823,0,0,0,.875.406,9.544,9.544,0,0,0,1.281.32,17.435,17.435,0,0,1,3.188.891A6.062,6.062,0,0,1,98.8,22.234a4.189,4.189,0,0,1,.93,2.859,4.253,4.253,0,0,1-.516,2.07,5.066,5.066,0,0,1-1.484,1.656,7.309,7.309,0,0,1-2.328,1.1,11.087,11.087,0,0,1-3.062.391,8.811,8.811,0,0,1-4.094-.867,6.435,6.435,0,0,1-2.523-2.187,4.9,4.9,0,0,1-.852-2.68h4.906a2.346,2.346,0,0,0,.383,1.281,2.044,2.044,0,0,0,.945.734,3.728,3.728,0,0,0,1.375.234,3.061,3.061,0,0,0,1.2-.2,1.663,1.663,0,0,0,.727-.555A1.379,1.379,0,0,0,94.656,25.25Zm17.422.641v-12.8h5.281V30h-4.937Zm.5-3.437,1.375-.031a11.6,11.6,0,0,1-.406,3.148,7.618,7.618,0,0,1-1.2,2.508,5.5,5.5,0,0,1-1.937,1.648,5.749,5.749,0,0,1-2.648.586,7.106,7.106,0,0,1-2.289-.352,4.515,4.515,0,0,1-1.789-1.109,5.1,5.1,0,0,1-1.164-1.953,8.8,8.8,0,0,1-.414-2.867V13.094h5.266V24.063a2.971,2.971,0,0,0,.141.969,1.807,1.807,0,0,0,.406.68,1.624,1.624,0,0,0,.664.406,2.888,2.888,0,0,0,.914.133,3.057,3.057,0,0,0,1.859-.5,2.641,2.641,0,0,0,.945-1.359A6.378,6.378,0,0,0,112.578,22.453Zm16.547,2.8a1.094,1.094,0,0,0-.289-.758,2.622,2.622,0,0,0-1.008-.594,14.732,14.732,0,0,0-2.016-.555,14.183,14.183,0,0,1-2.32-.7,7.992,7.992,0,0,1-1.9-1.062,4.611,4.611,0,0,1-1.273-1.484,4.1,4.1,0,0,1-.461-1.969,4.655,4.655,0,0,1,.461-2.039,5.02,5.02,0,0,1,1.359-1.7,6.73,6.73,0,0,1,2.2-1.172,9.373,9.373,0,0,1,2.953-.43,10.137,10.137,0,0,1,3.938.7,5.853,5.853,0,0,1,2.555,1.938,4.765,4.765,0,0,1,.9,2.867h-5.266a2.577,2.577,0,0,0-.211-1.094,1.466,1.466,0,0,0-.68-.7,2.737,2.737,0,0,0-1.25-.242,2.363,2.363,0,0,0-.992.2,1.784,1.784,0,0,0-.711.563,1.381,1.381,0,0,0-.266.844,1.176,1.176,0,0,0,.164.617,1.605,1.605,0,0,0,.508.5,3.823,3.823,0,0,0,.875.406,9.544,9.544,0,0,0,1.281.32,17.435,17.435,0,0,1,3.188.891,6.063,6.063,0,0,1,2.414,1.641,4.189,4.189,0,0,1,.93,2.859,4.253,4.253,0,0,1-.516,2.07A5.066,5.066,0,0,1,132.2,28.82a7.308,7.308,0,0,1-2.328,1.1,11.087,11.087,0,0,1-3.062.391,8.811,8.811,0,0,1-4.094-.867,6.435,6.435,0,0,1-2.523-2.187,4.9,4.9,0,0,1-.852-2.68h4.906a2.346,2.346,0,0,0,.383,1.281,2.044,2.044,0,0,0,.945.734,3.728,3.728,0,0,0,1.375.234,3.061,3.061,0,0,0,1.2-.2,1.664,1.664,0,0,0,.727-.555A1.379,1.379,0,0,0,129.125,25.25Zm22.656,1a2.686,2.686,0,0,0,1.258-.273,1.861,1.861,0,0,0,.8-.781,2.44,2.44,0,0,0,.258-1.227h4.953a5.818,5.818,0,0,1-.93,3.336,6.331,6.331,0,0,1-2.562,2.219,8.212,8.212,0,0,1-3.648.789,8.606,8.606,0,0,1-3.469-.648,6.75,6.75,0,0,1-2.477-1.812,7.729,7.729,0,0,1-1.484-2.727,11.231,11.231,0,0,1-.492-3.391v-.359a11.308,11.308,0,0,1,.492-3.4,7.72,7.72,0,0,1,1.484-2.734,6.765,6.765,0,0,1,2.469-1.812,8.507,8.507,0,0,1,3.445-.648,8.328,8.328,0,0,1,3.727.8,6.025,6.025,0,0,1,2.539,2.313,6.839,6.839,0,0,1,.906,3.672h-4.953a3.407,3.407,0,0,0-.234-1.375,2.173,2.173,0,0,0-.773-.977,2.273,2.273,0,0,0-1.336-.367,2.039,2.039,0,0,0-2.07,1.352,5.3,5.3,0,0,0-.344,1.445,16.519,16.519,0,0,0-.086,1.734v.359a16.907,16.907,0,0,0,.086,1.758,4.93,4.93,0,0,0,.352,1.438,2.229,2.229,0,0,0,.766.969A2.265,2.265,0,0,0,151.781,26.25Zm8.844-4.531v-.328a10.642,10.642,0,0,1,.531-3.43,7.8,7.8,0,0,1,1.563-2.727,7.1,7.1,0,0,1,2.547-1.8,8.833,8.833,0,0,1,3.5-.648,8.934,8.934,0,0,1,3.523.648,7.086,7.086,0,0,1,2.555,1.8,7.8,7.8,0,0,1,1.563,2.727,10.642,10.642,0,0,1,.531,3.43v.328a10.591,10.591,0,0,1-.531,3.414,7.879,7.879,0,0,1-1.562,2.734,6.976,6.976,0,0,1-2.547,1.8,8.928,8.928,0,0,1-3.5.641,9.044,9.044,0,0,1-3.516-.641,6.949,6.949,0,0,1-2.562-1.8,7.879,7.879,0,0,1-1.562-2.734A10.591,10.591,0,0,1,160.625,21.719Zm5.266-.328v.328a10.648,10.648,0,0,0,.141,1.781,4.762,4.762,0,0,0,.469,1.445,2.443,2.443,0,0,0,.891.961,2.654,2.654,0,0,0,1.406.344,2.581,2.581,0,0,0,1.383-.344,2.463,2.463,0,0,0,.883-.961,4.762,4.762,0,0,0,.469-1.445,10.648,10.648,0,0,0,.141-1.781v-.328a10.309,10.309,0,0,0-.141-1.742,4.961,4.961,0,0,0-.469-1.453,2.533,2.533,0,0,0-.891-.992,2.564,2.564,0,0,0-1.406-.359,2.493,2.493,0,0,0-1.383.359,2.555,2.555,0,0,0-.883.992,4.961,4.961,0,0,0-.469,1.453A10.309,10.309,0,0,0,165.891,21.391Zm18.688-4.719V30h-5.266V13.094h4.938Zm-.641,4.3-1.2.031a12.089,12.089,0,0,1,.422-3.281,7.881,7.881,0,0,1,1.25-2.609,5.731,5.731,0,0,1,2.039-1.719,6.16,6.16,0,0,1,2.8-.609,5.762,5.762,0,0,1,2.016.336,3.981,3.981,0,0,1,1.563,1.047,4.746,4.746,0,0,1,1.008,1.844,9.208,9.208,0,0,1,.352,2.711V30h-5.266V19.391a4.193,4.193,0,0,0-.242-1.625,1.324,1.324,0,0,0-.7-.734,2.9,2.9,0,0,0-1.109-.187,2.443,2.443,0,0,0-1.234.313,2.832,2.832,0,0,0-.93.867,4.09,4.09,0,0,0-.578,1.3A6.5,6.5,0,0,0,183.938,20.969Zm9.656,0L192.125,21a12.759,12.759,0,0,1,.4-3.281,7.811,7.811,0,0,1,1.2-2.609,5.546,5.546,0,0,1,2.008-1.719,6.111,6.111,0,0,1,2.8-.609,6.315,6.315,0,0,1,2.125.344,4.1,4.1,0,0,1,1.672,1.109,5.242,5.242,0,0,1,1.094,2.023,10.585,10.585,0,0,1,.391,3.1V30h-5.281V19.359a4.027,4.027,0,0,0-.242-1.586,1.358,1.358,0,0,0-.7-.734,2.712,2.712,0,0,0-1.078-.2,2.571,2.571,0,0,0-1.3.313,2.688,2.688,0,0,0-.914.867,3.932,3.932,0,0,0-.539,1.3A7.345,7.345,0,0,0,193.594,20.969Zm18.547-4.625V36.5h-5.266V13.094h4.906Zm10.375,5v.328a13.217,13.217,0,0,1-.422,3.422,8.539,8.539,0,0,1-1.25,2.75,5.825,5.825,0,0,1-2.055,1.82,5.979,5.979,0,0,1-2.836.648,4.888,4.888,0,0,1-2.609-.672,5.578,5.578,0,0,1-1.828-1.859,11.169,11.169,0,0,1-1.187-2.719,24.932,24.932,0,0,1-.719-3.234v-.422a25.484,25.484,0,0,1,.719-3.4,10.755,10.755,0,0,1,1.188-2.742,5.5,5.5,0,0,1,1.82-1.828,4.937,4.937,0,0,1,2.6-.656,6.3,6.3,0,0,1,2.836.609,5.672,5.672,0,0,1,2.063,1.742,7.99,7.99,0,0,1,1.258,2.711A13.544,13.544,0,0,1,222.516,21.344Zm-5.266.328v-.328a10.712,10.712,0,0,0-.141-1.8,5.125,5.125,0,0,0-.445-1.43,2.342,2.342,0,0,0-.8-.937,2.2,2.2,0,0,0-1.234-.328,3.431,3.431,0,0,0-1.414.258,2.065,2.065,0,0,0-.906.781,3.467,3.467,0,0,0-.469,1.3,9.9,9.9,0,0,0-.117,1.8v1.281a6.748,6.748,0,0,0,.234,2.086,2.637,2.637,0,0,0,.922,1.4,2.871,2.871,0,0,0,1.781.5,2.12,2.12,0,0,0,1.25-.352,2.434,2.434,0,0,0,.8-.984,5.288,5.288,0,0,0,.422-1.461A11.952,11.952,0,0,0,217.25,21.672Zm6.938.047v-.328a10.642,10.642,0,0,1,.531-3.43,7.8,7.8,0,0,1,1.563-2.727,7.1,7.1,0,0,1,2.547-1.8,8.833,8.833,0,0,1,3.5-.648,8.934,8.934,0,0,1,3.523.648,7.086,7.086,0,0,1,2.555,1.8,7.8,7.8,0,0,1,1.563,2.727,10.642,10.642,0,0,1,.531,3.43v.328a10.591,10.591,0,0,1-.531,3.414,7.879,7.879,0,0,1-1.562,2.734,6.976,6.976,0,0,1-2.547,1.8,8.928,8.928,0,0,1-3.5.641,9.044,9.044,0,0,1-3.516-.641,6.949,6.949,0,0,1-2.562-1.8,7.879,7.879,0,0,1-1.562-2.734A10.591,10.591,0,0,1,224.188,21.719Zm5.266-.328v.328a10.648,10.648,0,0,0,.141,1.781,4.762,4.762,0,0,0,.469,1.445,2.443,2.443,0,0,0,.891.961,2.654,2.654,0,0,0,1.406.344,2.581,2.581,0,0,0,1.383-.344,2.463,2.463,0,0,0,.883-.961,4.762,4.762,0,0,0,.469-1.445,10.648,10.648,0,0,0,.141-1.781v-.328a10.309,10.309,0,0,0-.141-1.742,4.961,4.961,0,0,0-.469-1.453,2.533,2.533,0,0,0-.891-.992,2.564,2.564,0,0,0-1.406-.359,2.493,2.493,0,0,0-1.383.359,2.555,2.555,0,0,0-.883.992,4.961,4.961,0,0,0-.469,1.453A10.309,10.309,0,0,0,229.453,21.391ZM248,16.7V30h-5.266V13.094h4.938Zm-.625,4.266L246.141,21a11.763,11.763,0,0,1,.469-3.461,7.63,7.63,0,0,1,1.328-2.586,5.709,5.709,0,0,1,2.055-1.617,6.253,6.253,0,0,1,2.664-.555,6.432,6.432,0,0,1,2.148.344,4.153,4.153,0,0,1,1.688,1.109,5.108,5.108,0,0,1,1.094,2.023,10.788,10.788,0,0,1,.383,3.1V30h-5.3V19.344a3.438,3.438,0,0,0-.281-1.555,1.5,1.5,0,0,0-.812-.742,3.645,3.645,0,0,0-1.3-.2,2.8,2.8,0,0,0-1.375.313,2.392,2.392,0,0,0-.9.867,4,4,0,0,0-.484,1.3A8.462,8.462,0,0,0,247.375,20.969Zm21.7,9.344a9.883,9.883,0,0,1-3.687-.648,7.73,7.73,0,0,1-4.445-4.414,8.476,8.476,0,0,1-.586-3.141v-.594a11.085,11.085,0,0,1,.516-3.445,8.038,8.038,0,0,1,1.531-2.773,6.912,6.912,0,0,1,2.547-1.852,8.891,8.891,0,0,1,3.563-.664,8.482,8.482,0,0,1,3.219.578,6.62,6.62,0,0,1,2.414,1.656,7.268,7.268,0,0,1,1.516,2.609,10.586,10.586,0,0,1,.523,3.438V23.2H262.375v-3.3h8.672V19.5a2.993,2.993,0,0,0-.289-1.437,2.09,2.09,0,0,0-.883-.906,2.922,2.922,0,0,0-1.406-.312,2.319,2.319,0,0,0-2.273,1.4,5.336,5.336,0,0,0-.43,1.492,12.154,12.154,0,0,0-.125,1.781v.594a5.314,5.314,0,0,0,.258,1.7,3.619,3.619,0,0,0,.75,1.3,3.387,3.387,0,0,0,1.188.836,4.005,4.005,0,0,0,1.586.3,5.83,5.83,0,0,0,2.125-.406,4.247,4.247,0,0,0,1.8-1.344l2.391,2.844a6.248,6.248,0,0,1-1.461,1.422,8.09,8.09,0,0,1-2.258,1.117A9.411,9.411,0,0,1,269.078,30.313ZM283.5,16.7V30h-5.266V13.094h4.938Zm-.625,4.266L281.641,21a11.763,11.763,0,0,1,.469-3.461,7.63,7.63,0,0,1,1.328-2.586,5.709,5.709,0,0,1,2.055-1.617,6.253,6.253,0,0,1,2.664-.555,6.432,6.432,0,0,1,2.148.344,4.154,4.154,0,0,1,1.688,1.109,5.108,5.108,0,0,1,1.094,2.023,10.788,10.788,0,0,1,.383,3.1V30h-5.3V19.344a3.438,3.438,0,0,0-.281-1.555,1.5,1.5,0,0,0-.812-.742,3.645,3.645,0,0,0-1.3-.2,2.8,2.8,0,0,0-1.375.313,2.393,2.393,0,0,0-.9.867,4,4,0,0,0-.484,1.3A8.46,8.46,0,0,0,282.875,20.969ZM305.3,13.094V16.75H295.109V13.094Zm-8.047-4.2h5.266V24.484a2.74,2.74,0,0,0,.156,1.039.923.923,0,0,0,.539.516,2.894,2.894,0,0,0,1.023.148q.453,0,.75-.023t.563-.07v3.766a9.237,9.237,0,0,1-1.406.336,9.918,9.918,0,0,1-1.562.117,7.071,7.071,0,0,1-2.883-.531,3.764,3.764,0,0,1-1.82-1.672,6.156,6.156,0,0,1-.625-2.969Zm18.328,21.422a9.883,9.883,0,0,1-3.687-.648,7.73,7.73,0,0,1-4.445-4.414,8.476,8.476,0,0,1-.586-3.141v-.594a11.085,11.085,0,0,1,.516-3.445,8.038,8.038,0,0,1,1.531-2.773,6.912,6.912,0,0,1,2.547-1.852,8.891,8.891,0,0,1,3.563-.664,8.482,8.482,0,0,1,3.219.578,6.62,6.62,0,0,1,2.414,1.656,7.268,7.268,0,0,1,1.516,2.609,10.586,10.586,0,0,1,.523,3.438V23.2H308.875v-3.3h8.672V19.5a2.993,2.993,0,0,0-.289-1.437,2.09,2.09,0,0,0-.883-.906,2.922,2.922,0,0,0-1.406-.312,2.319,2.319,0,0,0-2.273,1.4,5.336,5.336,0,0,0-.43,1.492,12.154,12.154,0,0,0-.125,1.781v.594a5.314,5.314,0,0,0,.258,1.7,3.619,3.619,0,0,0,.75,1.3,3.387,3.387,0,0,0,1.188.836,4.005,4.005,0,0,0,1.586.3,5.83,5.83,0,0,0,2.125-.406,4.247,4.247,0,0,0,1.8-1.344l2.391,2.844a6.248,6.248,0,0,1-1.461,1.422,8.09,8.09,0,0,1-2.258,1.117A9.411,9.411,0,0,1,315.578,30.313Zm18.109-5.062a1.094,1.094,0,0,0-.289-.758,2.622,2.622,0,0,0-1.008-.594,14.731,14.731,0,0,0-2.016-.555,14.183,14.183,0,0,1-2.32-.7,7.991,7.991,0,0,1-1.9-1.062,4.611,4.611,0,0,1-1.273-1.484,4.1,4.1,0,0,1-.461-1.969,4.656,4.656,0,0,1,.461-2.039,5.02,5.02,0,0,1,1.359-1.7,6.73,6.73,0,0,1,2.2-1.172,9.373,9.373,0,0,1,2.953-.43,10.136,10.136,0,0,1,3.938.7,5.854,5.854,0,0,1,2.555,1.938,4.765,4.765,0,0,1,.9,2.867h-5.266a2.577,2.577,0,0,0-.211-1.094,1.466,1.466,0,0,0-.68-.7,2.737,2.737,0,0,0-1.25-.242,2.363,2.363,0,0,0-.992.2,1.784,1.784,0,0,0-.711.563,1.381,1.381,0,0,0-.266.844,1.176,1.176,0,0,0,.164.617,1.605,1.605,0,0,0,.508.5,3.823,3.823,0,0,0,.875.406,9.543,9.543,0,0,0,1.281.32,17.435,17.435,0,0,1,3.188.891,6.062,6.062,0,0,1,2.414,1.641,4.189,4.189,0,0,1,.93,2.859,4.253,4.253,0,0,1-.516,2.07,5.066,5.066,0,0,1-1.484,1.656,7.309,7.309,0,0,1-2.328,1.1,11.087,11.087,0,0,1-3.062.391,8.811,8.811,0,0,1-4.094-.867,6.435,6.435,0,0,1-2.523-2.187,4.9,4.9,0,0,1-.852-2.68h4.906a2.346,2.346,0,0,0,.383,1.281,2.044,2.044,0,0,0,.945.734,3.728,3.728,0,0,0,1.375.234,3.061,3.061,0,0,0,1.2-.2,1.663,1.663,0,0,0,.727-.555A1.379,1.379,0,0,0,333.688,25.25Z" transform="translate(601.711 1634)" fill="#12263f"/>
          <path id="Trazado_993064" data-name="Trazado 993064" d="M54.4,11.4v5.84a5.026,5.026,0,0,1-1.108.854,7.677,7.677,0,0,1-1.88.776,9.8,9.8,0,0,1-2.666.322,6.952,6.952,0,0,1-2.568-.454A5.353,5.353,0,0,1,44.2,17.4a6,6,0,0,1-1.27-2.168,8.986,8.986,0,0,1-.444-2.944V11.5a8.941,8.941,0,0,1,.449-2.949A6.132,6.132,0,0,1,44.2,6.378,5.4,5.4,0,0,1,46.12,5.035a6.308,6.308,0,0,1,2.437-.459,7.1,7.1,0,0,1,3.193.62,4.369,4.369,0,0,1,1.865,1.709,6.082,6.082,0,0,1,.771,2.515H51.1a3.5,3.5,0,0,0-.366-1.2,1.8,1.8,0,0,0-.767-.752,2.793,2.793,0,0,0-1.289-.259,2.371,2.371,0,0,0-1.118.264,2.31,2.31,0,0,0-.854.8,4.148,4.148,0,0,0-.542,1.333,8.171,8.171,0,0,0-.19,1.875v.811a8.544,8.544,0,0,0,.181,1.865,3.814,3.814,0,0,0,.547,1.333,2.319,2.319,0,0,0,.938.8,3.153,3.153,0,0,0,1.353.269,4.109,4.109,0,0,0,.938-.093,2.624,2.624,0,0,0,.649-.234,2,2,0,0,0,.4-.269V13.756H48.586V11.4Zm1.436,2.422v-.205a6.651,6.651,0,0,1,.332-2.144,4.873,4.873,0,0,1,.977-1.7,4.438,4.438,0,0,1,1.592-1.128,5.521,5.521,0,0,1,2.188-.405,5.584,5.584,0,0,1,2.2.405,4.429,4.429,0,0,1,1.6,1.128,4.873,4.873,0,0,1,.977,1.7,6.651,6.651,0,0,1,.332,2.144v.205a6.619,6.619,0,0,1-.332,2.134,4.924,4.924,0,0,1-.977,1.709,4.36,4.36,0,0,1-1.592,1.128,5.58,5.58,0,0,1-2.187.4,5.653,5.653,0,0,1-2.2-.4,4.343,4.343,0,0,1-1.6-1.128,4.924,4.924,0,0,1-.977-1.709A6.619,6.619,0,0,1,55.832,13.824Zm3.291-.205v.205a6.655,6.655,0,0,0,.088,1.113,2.976,2.976,0,0,0,.293.9,1.527,1.527,0,0,0,.557.6,1.659,1.659,0,0,0,.879.215,1.613,1.613,0,0,0,.864-.215,1.539,1.539,0,0,0,.552-.6,2.976,2.976,0,0,0,.293-.9,6.655,6.655,0,0,0,.088-1.113v-.205a6.443,6.443,0,0,0-.088-1.089,3.1,3.1,0,0,0-.293-.908A1.583,1.583,0,0,0,61.8,11a1.6,1.6,0,0,0-.879-.225,1.558,1.558,0,0,0-.864.225,1.6,1.6,0,0,0-.552.62,3.1,3.1,0,0,0-.293.908A6.443,6.443,0,0,0,59.123,13.619ZM67.512,4H70.8V16.4L70.461,19H67.512Zm9.775,9.6V13.8a9.108,9.108,0,0,1-.244,2.188,5,5,0,0,1-.752,1.7A3.464,3.464,0,0,1,75.012,18.8a4,4,0,0,1-1.826.391,3.1,3.1,0,0,1-1.641-.415A3.454,3.454,0,0,1,70.4,17.628a6.839,6.839,0,0,1-.742-1.709,15.76,15.76,0,0,1-.449-2.085V13.59a15.835,15.835,0,0,1,.449-2.075A6.839,6.839,0,0,1,70.4,9.806,3.471,3.471,0,0,1,71.54,8.653a3.057,3.057,0,0,1,1.626-.415,3.968,3.968,0,0,1,1.841.4,3.522,3.522,0,0,1,1.284,1.123,5.058,5.058,0,0,1,.752,1.7A8.81,8.81,0,0,1,77.287,13.6ZM74,13.8V13.6a8.135,8.135,0,0,0-.068-1.084,3.235,3.235,0,0,0-.244-.9,1.462,1.462,0,0,0-.5-.615,1.439,1.439,0,0,0-.84-.225,1.989,1.989,0,0,0-.884.176,1.389,1.389,0,0,0-.566.5,2.22,2.22,0,0,0-.3.8,5.406,5.406,0,0,0-.078,1.069V14.1a4.648,4.648,0,0,0,.146,1.387,1.6,1.6,0,0,0,.576.879,1.855,1.855,0,0,0,1.123.3,1.589,1.589,0,0,0,.854-.205,1.269,1.269,0,0,0,.493-.586,3.144,3.144,0,0,0,.225-.908A10.576,10.576,0,0,0,74,13.8Zm8.223-5.371V19h-3.3V8.434Zm-3.5-2.725a1.469,1.469,0,0,1,.508-1.152,2.159,2.159,0,0,1,2.637,0,1.469,1.469,0,0,1,.508,1.152,1.469,1.469,0,0,1-.508,1.152,2.159,2.159,0,0,1-2.637,0A1.469,1.469,0,0,1,78.723,5.709ZM89.357,19.2a6.177,6.177,0,0,1-2.3-.405,4.832,4.832,0,0,1-2.778-2.759,5.3,5.3,0,0,1-.366-1.963V13.7a6.928,6.928,0,0,1,.322-2.153,5.024,5.024,0,0,1,.957-1.733,4.32,4.32,0,0,1,1.592-1.157,5.557,5.557,0,0,1,2.227-.415,5.3,5.3,0,0,1,2.012.361,4.137,4.137,0,0,1,1.509,1.035,4.542,4.542,0,0,1,.947,1.631,6.617,6.617,0,0,1,.327,2.148v1.338H85.168V12.691h5.42v-.254a1.871,1.871,0,0,0-.181-.9,1.306,1.306,0,0,0-.552-.566,1.826,1.826,0,0,0-.879-.2,1.45,1.45,0,0,0-1.421.874,3.335,3.335,0,0,0-.269.933,7.6,7.6,0,0,0-.078,1.113v.371a3.321,3.321,0,0,0,.161,1.064,2.262,2.262,0,0,0,.469.815,2.117,2.117,0,0,0,.742.522,2.5,2.5,0,0,0,.991.186A3.644,3.644,0,0,0,90.9,16.4a2.654,2.654,0,0,0,1.123-.84l1.494,1.777a3.905,3.905,0,0,1-.913.889,5.056,5.056,0,0,1-1.411.7A5.882,5.882,0,0,1,89.357,19.2Zm9.1-8.145V19H95.168V8.434h3.076Zm3.125-2.7-.059,3.057L101,11.363q-.332-.029-.557-.029a3.293,3.293,0,0,0-.991.132,1.715,1.715,0,0,0-.684.391,1.508,1.508,0,0,0-.391.649,2.868,2.868,0,0,0-.112.908l-.6-.391a8.305,8.305,0,0,1,.21-1.938,5.234,5.234,0,0,1,.6-1.514,2.935,2.935,0,0,1,.947-.986,2.316,2.316,0,0,1,1.25-.347,3.974,3.974,0,0,1,.483.029A2.376,2.376,0,0,1,101.584,8.355Zm4.365,2.334V19h-3.291V8.434h3.086Zm-.391,2.666-.771.02a7.352,7.352,0,0,1,.293-2.163,4.769,4.769,0,0,1,.83-1.616,3.568,3.568,0,0,1,1.284-1.011,3.908,3.908,0,0,1,1.665-.347,4.02,4.02,0,0,1,1.343.215,2.6,2.6,0,0,1,1.055.693,3.193,3.193,0,0,1,.684,1.265,6.743,6.743,0,0,1,.239,1.938V19h-3.311V12.34a2.149,2.149,0,0,0-.176-.972.941.941,0,0,0-.508-.464,2.278,2.278,0,0,0-.811-.127,1.747,1.747,0,0,0-.859.2,1.5,1.5,0,0,0-.562.542,2.5,2.5,0,0,0-.3.815A5.288,5.288,0,0,0,105.559,13.355Zm8.037.469v-.205a6.651,6.651,0,0,1,.332-2.144,4.873,4.873,0,0,1,.977-1.7A4.438,4.438,0,0,1,116.5,8.644a5.521,5.521,0,0,1,2.188-.405,5.584,5.584,0,0,1,2.2.405,4.429,4.429,0,0,1,1.6,1.128,4.873,4.873,0,0,1,.977,1.7,6.651,6.651,0,0,1,.332,2.144v.205a6.619,6.619,0,0,1-.332,2.134,4.924,4.924,0,0,1-.977,1.709,4.36,4.36,0,0,1-1.592,1.128,5.58,5.58,0,0,1-2.187.4,5.653,5.653,0,0,1-2.2-.4,4.343,4.343,0,0,1-1.6-1.128,4.924,4.924,0,0,1-.977-1.709A6.619,6.619,0,0,1,113.6,13.824Zm3.291-.205v.205a6.655,6.655,0,0,0,.088,1.113,2.976,2.976,0,0,0,.293.9,1.527,1.527,0,0,0,.557.6,1.659,1.659,0,0,0,.879.215,1.613,1.613,0,0,0,.864-.215,1.539,1.539,0,0,0,.552-.6,2.976,2.976,0,0,0,.293-.9,6.655,6.655,0,0,0,.088-1.113v-.205a6.443,6.443,0,0,0-.088-1.089,3.1,3.1,0,0,0-.293-.908,1.583,1.583,0,0,0-.557-.62,1.6,1.6,0,0,0-.879-.225,1.558,1.558,0,0,0-.864.225,1.6,1.6,0,0,0-.552.62,3.1,3.1,0,0,0-.293.908A6.443,6.443,0,0,0,116.887,13.619Z" transform="translate(1022.711 1321)" fill="#12263f"/>
          <g id="Grupo_1177193" data-name="Grupo 1177193" transform="translate(344.007 1338)">
            <path id="Trazado_992311" data-name="Trazado 992311" d="M201.625,330.379l-22.16-3.183a5.947,5.947,0,0,1-5.1-5.887V302.642h-30.81V321.31a5.947,5.947,0,0,1-5.1,5.887l-22.16,3.183A24.583,24.583,0,0,0,95.2,354.713v27.964H222.713V354.713a24.583,24.583,0,0,0-21.088-24.333Z" transform="translate(-4.526 -182.649)" fill="#bb5d4c"/>
            <path id="Trazado_992312" data-name="Trazado 992312" d="M223.594,390.867h0v0A24.63,24.63,0,0,0,210.8,377.431h0l-.944,2.919a50.785,50.785,0,0,1-96.641,0l-.944-2.919h0a24.629,24.629,0,0,0-12.794,13.44v0a54.912,54.912,0,0,0,51.888,36.941H171.7a54.913,54.913,0,0,0,51.89-36.947Z" transform="translate(-7.105 -227.786)" fill="#528fd8"/>
            <path id="Trazado_992313" data-name="Trazado 992313" d="M96.9,411.33v0a24.526,24.526,0,0,0-1.694,8.978V448.27H107.1V429.1A54.81,54.81,0,0,1,96.9,411.33Z" transform="translate(-4.527 -248.243)" fill="#a44f3e"/>
            <path id="Trazado_992314" data-name="Trazado 992314" d="M227.627,370,215.751,368.3s-.493.7-1.285,1.816a36.146,36.146,0,0,1-58.8.256l-.378-.524-1.1.158a24.539,24.539,0,0,0-15.9,9.229,50.787,50.787,0,0,0,94.993-4.4l.944-2.919h0a24.573,24.573,0,0,0-6.6-1.914Z" transform="translate(-30.528 -222.274)" fill="#ffe177"/>
            <path id="Trazado_992315" data-name="Trazado 992315" d="M200.523,327.2a5.948,5.948,0,0,0,5.1-5.887V302.642H193.73V321.31a5.947,5.947,0,0,1-5.1,5.887l-10.284,1.477,1.117,1.548Z" transform="translate(-54.703 -182.649)" fill="#a44f3e"/>
            <path id="Trazado_992316" data-name="Trazado 992316" d="M131.747,377.429h0Z" transform="translate(-26.581 -227.784)" fill="#fcd0a2"/>
            <path id="Trazado_992317" data-name="Trazado 992317" d="M150.243,370l1.1-.158-1.117-1.548L138.348,370a24.573,24.573,0,0,0-6.6,1.914h0l.944,2.919q.728,2.251,1.649,4.4a24.541,24.541,0,0,1,15.9-9.229Z" transform="translate(-26.582 -222.274)" fill="#ffd15b"/>
            <path id="Trazado_992318" data-name="Trazado 992318" d="M114.866,384.744q-.918-2.143-1.649-4.4l-.944-2.919h0a24.629,24.629,0,0,0-12.794,13.44v0a54.822,54.822,0,0,0,10.2,17.774v-8.8A24.519,24.519,0,0,1,114.866,384.744Z" transform="translate(-7.106 -227.784)" fill="#0473ce"/>
            <ellipse id="Elipse_13687" data-name="Elipse 13687" cx="15.395" cy="18.474" rx="15.395" ry="18.474" transform="translate(166.748 2.977)" fill="#bbec6c"/>
            <ellipse id="Elipse_13688" data-name="Elipse 13688" cx="27.711" cy="18.474" rx="27.711" ry="18.474" transform="translate(126.72 2.977)" fill="#fe646f"/>
            <path id="Trazado_992319" data-name="Trazado 992319" d="M210.588,211.788a29.836,29.836,0,0,1-29.836-29.836V131.733h59.672v50.22a29.836,29.836,0,0,1-29.836,29.835Z" transform="translate(-56.156 -79.503)" fill="#d78878"/>
            <path id="Trazado_992320" data-name="Trazado 992320" d="M188.682,181.952v-50.22h-7.93v50.22a29.859,29.859,0,0,0,33.8,29.575A29.842,29.842,0,0,1,188.682,181.952Z" transform="translate(-56.156 -79.503)" fill="#ca6e59"/>
            <path id="Trazado_992321" data-name="Trazado 992321" d="M160.552,197.719h-5.558a7.712,7.712,0,0,0-7.712,7.712v5.779a7.712,7.712,0,0,0,7.712,7.712h5.558Z" transform="translate(-35.956 -119.327)" fill="#d78878"/>
            <path id="Trazado_992322" data-name="Trazado 992322" d="M331.254,197.719h5.558a7.712,7.712,0,0,1,7.712,7.712v5.779a7.712,7.712,0,0,1-7.712,7.712h-5.558Z" transform="translate(-146.986 -119.327)" fill="#ca6e59"/>
            <ellipse id="Elipse_13689" data-name="Elipse 13689" cx="15.395" cy="18.474" rx="15.395" ry="18.474" transform="translate(111.325 2.977)" fill="#ffe177"/>
            <path id="Trazado_992323" data-name="Trazado 992323" d="M155.212,25.983c0-8.558,4.849-15.756,11.43-17.855a13.009,13.009,0,0,0-3.965-.619c-8.5,0-15.4,8.271-15.4,18.474s6.892,18.474,15.4,18.474a13.006,13.006,0,0,0,3.965-.619c-6.581-2.1-11.43-9.3-11.43-17.855Z" transform="translate(-35.956 -4.532)" fill="#ffd15b"/>
            <path id="Trazado_992324" data-name="Trazado 992324" d="M211.836,72.606H150.191a18.442,18.442,0,0,1-18.442-18.442h98.53A18.442,18.442,0,0,1,211.836,72.606Z" transform="translate(-26.582 -32.689)" fill="#cbc4cc"/>
            <path id="Trazado_992325" data-name="Trazado 992325" d="M139.679,54.164h-7.93a18.442,18.442,0,0,0,18.442,18.442h7.93A18.443,18.443,0,0,1,139.679,54.164Z" transform="translate(-26.582 -32.689)" fill="#b5adb6"/>
            <path id="Trazado_992326" data-name="Trazado 992326" d="M239.566,139.154c-14.176-20-60.626-38.475-60.626-38.475h61.581c15.242,6.158,14.021,29.5,6.158,38.631Z" transform="translate(-55.062 -60.761)" fill="#e53950"/>
            <path id="Trazado_992327" data-name="Trazado 992327" d="M161.271,139.154c14.176-20,60.626-38.475,60.626-38.475H160.316c-15.242,6.158-14.021,29.5-6.158,38.631Z" transform="translate(-36.675 -60.761)" fill="#fe646f"/>
            <path id="Trazado_992328" data-name="Trazado 992328" d="M168.246,100.679h-7.93c-15.242,6.158-14.021,29.5-6.158,38.631l7.113-.157q.159-.224.323-.447C154.181,129.193,153.33,106.706,168.246,100.679Z" transform="translate(-36.675 -60.761)" fill="#e53950"/>
            <g id="Grupo_1177192" data-name="Grupo 1177192" transform="translate(87.704 0)">
              <path id="Trazado_992329" data-name="Trazado 992329" d="M197.521,144.785,175.36,141.6a2.989,2.989,0,0,1-2.552-2.944v-9.041a33.016,33.016,0,0,0,11.77-14.221c13.481,7.11,23.217-12.326,15.9-22.684.167-2.167.051-4.445.032-6.608a10.68,10.68,0,0,0-4.47-8.687,32.358,32.358,0,0,0,3.922-12.005,2.974,2.974,0,1,0-5.9-.768,25.051,25.051,0,0,1-3.8,10.784c-.147-.006-4.273-.009-4.273-.009-5.042-6.527-13.574-13.429-25.423-20.569,11.27-6.057,21.521-10.424,24.722-11.75a15.766,15.766,0,0,1,7.926,9.848q1.452,2.626,3.719,1.964a2.973,2.973,0,0,0,1.964-3.719,22.858,22.858,0,0,0-5.789-9.785,22.231,22.231,0,0,0,13.554-19.931A2.974,2.974,0,0,0,203.7,18.5h-3.357C199.1,8.063,191.414,0,182.142,0a16.6,16.6,0,0,0-10.347,3.716,42.4,42.4,0,0,0-34.738.011A16.5,16.5,0,0,0,126.719,0c-9.272,0-16.962,8.063-18.2,18.5h-3.357a2.974,2.974,0,0,0-2.974,2.974,21.451,21.451,0,0,0,13.752,20c-8.9,8.758-8.98,25.48-2.963,35.83a10.683,10.683,0,0,0-4.631,8.8c-.014,2.13-.116,4.347.023,6.48-7.391,10.23,1.97,30.244,15.891,22.769a33.011,33.011,0,0,0,11.788,14.264v9.041A2.99,2.99,0,0,1,133.5,141.6l-22.16,3.184A27.879,27.879,0,0,0,87.7,172.062v27.965A2.974,2.974,0,0,0,90.678,203H218.184a2.974,2.974,0,0,0,2.974-2.974V172.061c0-18.071-14.242-25.928-23.637-27.277ZM194.564,86.1v2.33a2.97,2.97,0,0,0-2.3,1.44q-.631,3.248,1.614,4.467a4.74,4.74,0,0,1-4.05,2.281h-2.584V81.426l3.742.081A4.747,4.747,0,0,1,194.564,86.1Zm-4.4,24.736a6.2,6.2,0,0,1-3.706-1.272,32.787,32.787,0,0,0,.777-7c3.379.244,7.427-.579,9.9-2.9C198.069,103.874,195.394,110.838,190.169,110.838ZM194.336,18.5h-9.5c-.812-4.255-3.382-8.178-7.464-11.365a10.2,10.2,0,0,1,4.769-1.188C188.179,5.948,193.224,11.35,194.336,18.5ZM126.719,5.948c7,0,11.271,6.619,12.194,12.553H114.523c1.107-7.143,6.155-12.553,12.2-12.553Zm-18.293,18.5h40.822a2.974,2.974,0,0,0,0-5.947h-4.332a23.361,23.361,0,0,0-3.646-10.13,35.743,35.743,0,0,1,13.161-2.423c11.8,0,21.982,5.494,24.262,12.553H162.206a2.974,2.974,0,0,0,0,5.947h38.232a15.616,15.616,0,0,1-15.183,12.494H123.607a15.493,15.493,0,0,1-15.181-12.494ZM115.5,54.3c.939-3.873,3.22-8.94,8.744-11.413h46.815c-14.645,6.885-37.634,19.162-47.962,32.527,0,0-4.2,0-4.276,0C115.256,70.244,113.794,61.337,115.5,54.3Zm3.537,42.318a4.741,4.741,0,0,1-4.08-2.332q2.193-1.2,1.544-4.416a2.967,2.967,0,0,0-2.2-1.429V86.1a4.748,4.748,0,0,1,3.556-4.59l3.766-.083V96.62h-2.584Zm-.444,14.218c-5.261,0-7.92-7.03-6.953-11.252,2.48,2.382,6.567,3.229,9.981,2.981a32.817,32.817,0,0,0,.763,6.935A6.216,6.216,0,0,1,118.592,110.838Zm8.975-8.391V79.36c5.713-7.588,16.331-15,26.986-21.161,12.615,7.307,21.8,14.476,26.739,20.857v23.391a27.22,27.22,0,0,1-26.863,26.863,26.893,26.893,0,0,1-26.863-26.863Zm-5.285,46.773c5.433,7.447,15.881,16.275,25.792,16.275a2.974,2.974,0,0,0,.522-5.9,32.993,32.993,0,0,1-19.571-11.343l5.321-.764A8.967,8.967,0,0,0,142,138.656v-5.843a32.959,32.959,0,0,0,24.861,0v5.843a8.967,8.967,0,0,0,7.654,8.831l5.343.768a34.032,34.032,0,0,1-19.375,11.3,2.974,2.974,0,0,0,.542,5.9c9.5,0,20.583-8.908,25.573-16.232,0,0,12.325,1.864,13.4,2.2l-.073.225a47.812,47.812,0,0,1-90.982,0c-.475-1.212,13.343-2.426,13.343-2.426Zm-18.833,4.77a53.759,53.759,0,0,0,101.962,0,21.9,21.9,0,0,1,7.874,9.207A51.97,51.97,0,0,1,164.6,197.052H144.26A51.971,51.971,0,0,1,95.573,163.2a21.9,21.9,0,0,1,7.877-9.213Zm-9.8,19.225a57.963,57.963,0,0,0,25.065,23.837H93.651Zm96.49,23.837a57.962,57.962,0,0,0,25.069-23.845v23.845Z" transform="translate(-87.704 0)"/>
              <path id="Trazado_992330" data-name="Trazado 992330" d="M222.137,205.677a2.974,2.974,0,0,0-5.947,0v3.9a2.974,2.974,0,0,0,5.947,0Z" transform="translate(-165.247 -122.334)"/>
              <path id="Trazado_992331" data-name="Trazado 992331" d="M283.784,212.553a2.974,2.974,0,0,0,2.974-2.974v-3.9a2.974,2.974,0,0,0-5.947,0v3.9A2.974,2.974,0,0,0,283.784,212.553Z" transform="translate(-204.246 -122.334)"/>
              <path id="Trazado_992332" data-name="Trazado 992332" d="M250.554,272.333a2.974,2.974,0,0,0-5.947,0,4.484,4.484,0,0,1-8.968,0,2.974,2.974,0,0,0-5.947,0,10.431,10.431,0,1,0,20.862,0Z" transform="translate(-173.396 -162.562)"/>
            </g>
          </g>
          <g id="Grupo_1177195" data-name="Grupo 1177195" transform="translate(649.731 1392.999)">
            <g id="Grupo_1177194" data-name="Grupo 1177194" transform="translate(69.844 3.847)">
              <path id="Trazado_992333" data-name="Trazado 992333" d="M115.157,105.085H230.272a5.657,5.657,0,0,1,.738-4.442c7.657-11.419,2.3-16.7-5.341-17.495-6.079-.635-13.008-.226-14.439-2.457-5.108-7.963-9.383-9.536-14.194-10.034-32.355-3.35-14.921-15.446-24.887-20.578-12.115-6.239,6.152-27.636,19.32-28.193,8.629-.365-1.668-23.692-22.921-4.15-3.6,3.311-15.108,6.506-21.4,8.354-7.254,2.129-3.456,4.936-9.471,13.951-5.8,8.692-5.038.9-7.763,6.272-3.424,6.753-6.581,7.564-9.112,7.76-7.1.55-13.667,13.068-8.818,19.956,5.318,7.554,1.717,26.731,2.442,28.5A12.752,12.752,0,0,1,115.157,105.085Z" transform="translate(-97.033 -9.943)" fill="#ffc144" fill-rule="evenodd"/>
              <path id="Trazado_992334" data-name="Trazado 992334" d="M209.211,255.943H94.1c1.4,7.714-2.937,18.5-9.379,18.886-12.272.729-3.692,6.134-7.734,8.585-3.811,2.311,4.268,9.51,5.654,9.455,8.657-.343,17.135,16.8,22.063,8.337.616-1.058,5.478.234,10.74,2.308h67.914c1.914-4.4,6.493-2.467,8.207-5.772,2.977-5.743-3.721-10.688.488-13.209,8.342-5,13.213,8.579,21.062,3.925,6.75-4-5.324-16.23-1.555-20.436,2.712-3.025-1.479-7.671-2.346-12.079Z" transform="translate(-75.972 -160.801)" fill="#60a4ff" fill-rule="evenodd"/>
              <path id="Trazado_992335" data-name="Trazado 992335" d="M245.938,378.943H178.025c6.62,2.609,13.874,6.457,14.115,8.428.924,7.556,5.724,3.1,5.625,6.444-.236,7.941,5.7,5.054,6.014,7.333,1.484,10.758,15.225,5.356,18.595,4.962,15.893-1.858,8.535,21.943,18.072,20.325s4.439-13.19,5.866-22.855c.988-6.687,3.992-7.321,1.936-14.831-1.315-4.8-3.815-6.146-2.368-9.67C245.9,379.033,245.919,378.987,245.938,378.943Z" transform="translate(-138.555 -236.23)" fill="#ff5a58" fill-rule="evenodd"/>
            </g>
            <path id="Trazado_992336" data-name="Trazado 992336" d="M116.168,208.68a3.868,3.868,0,0,0,3.868-3.868v0a3.868,3.868,0,1,0-3.868,3.87Z" transform="translate(-28.406 -123.227)"/>
            <path id="Trazado_992337" data-name="Trazado 992337" d="M212.831,126.124a30.692,30.692,0,0,0-2.49-7.556c-.672-1.576-1.769-4.149-1.8-5.193,3.123-3.805,1.081-8.376-.281-11.426-1.112-2.489-1.851-4.322-1.23-5.247,4.335-6.464,5.466-12.022,3.36-16.518-1.834-3.916-5.922-6.394-11.512-6.978-1.735-.181-3.484-.279-5.176-.374a35.542,35.542,0,0,1-6.678-.737c-5.615-8.572-10.78-10.759-16.784-11.381-10.417-1.078-14.549-3.033-16.182-4.482-1.36-1.208-1.456-2.461-1.53-4.956-.092-3.132-.233-7.863-5.8-10.732-1.422-.733-2.257-1.73-1.709-4.217,1.455-6.609,11.745-16.349,19.422-16.673a6.749,6.749,0,0,0,6.513-5.174c1.095-4.331-1.583-9.685-6.229-12.454-3.4-2.025-12.733-5.42-25.986,6.767-2.695,2.478-13.4,5.6-18.542,7.1l-1.33.389c-5.811,1.706-7.056,4.455-8.18,8.152A24.731,24.731,0,0,1,107.27,31.8a19.246,19.246,0,0,1-1.929,2.532c-3.691-.55-5.4,2.812-6.067,4.137-2.74,5.4-4.678,5.553-5.961,5.652-3.5.271-6.927,2.342-9.647,5.83-3.407,4.371-5.014,10.073-4.193,14.882a3.868,3.868,0,0,0,7.625-1.3c-.453-2.65.62-6.2,2.668-8.824,1.327-1.7,2.876-2.776,4.143-2.874,3.481-.269,8-1.61,12.131-9.608,2.967-.091,5.263-2.535,7.663-6.132a32.344,32.344,0,0,0,4.385-9.406c.705-2.319.705-2.319,2.958-2.981l1.317-.385c9.267-2.7,17.893-5.414,21.612-8.833,6.574-6.045,12.66-8.185,16.7-5.871a5.712,5.712,0,0,1,2.723,3.356c-5.051.437-10.825,3.219-15.969,7.718-5.245,4.587-8.875,10.045-9.961,14.975-1.233,5.6.853,10.249,5.722,12.757,1.359.7,1.525,1.12,1.612,4.084.083,2.8.208,7.031,4.125,10.51,3.711,3.3,10.232,5.328,20.522,6.393,3.533.365,6.824,1.24,11.337,8.275,2.111,3.291,6.691,3.547,12.49,3.871,1.6.089,3.253.182,4.8.344,2.705.282,4.691,1.241,5.311,2.565.838,1.79-.175,5.045-2.78,8.929a8.951,8.951,0,0,0-1.242,2.729H87.968a3.868,3.868,0,0,0-3.805,4.559,17.166,17.166,0,0,1-2.955,12.386c-.547.7-1.645,1.876-2.847,1.947-4.918.292-7.708,1.313-9.33,3.416a7.2,7.2,0,0,0-.984,6.168c.007.035.014.072.022.11a5.969,5.969,0,0,0-1.778,6.539c1.087,3.609,6.616,9.7,10.371,9.532l.106,0c2.28,0,5.576,2.815,8.231,5.084,3.6,3.073,7.008,5.975,10.951,5.566h.131a3.843,3.843,0,0,0,2.008-.567,7.732,7.732,0,0,0,2.637-2,53.519,53.519,0,0,1,9.571,3.285c5.453,2.352,8.449,4.293,9.411,5.134.817,4.825,3.253,6.506,5.546,7.14.581,5.7,4.321,7.225,6.37,7.766a10.519,10.519,0,0,0,4.174,6.042c5.052,3.455,12.169,1.761,16.421.748.738-.176,1.574-.375,1.891-.411,4.753-.557,5.969,1.559,7.669,9.123a26.059,26.059,0,0,0,2.345,7.232,7.506,7.506,0,0,0,6.7,4.076,9.274,9.274,0,0,0,1.552-.135c4.451-.755,7.418-3.339,8.58-7.471.857-3.049.65-6.494.43-10.142a42.706,42.706,0,0,1,.036-8.49,20.167,20.167,0,0,1,1.31-4.664c1.071-2.818,2.179-5.731.53-11.754a25.8,25.8,0,0,0-1.929-4.848c-.846-1.713-.832-1.748-.591-2.333.277-.674.428-.8,2.124-1.3,1.771-.52,4.446-1.306,6-4.294,2.24-4.32.906-8.22.023-10.8-.125-.366-.277-.809-.386-1.18,1.571-.674,2.91-.037,6.129,2.137,3.328,2.247,8.356,5.644,14.323,2.105,1.75-1.039,4.582-3.55,3.875-8.707ZM175.508,164.35a27.688,27.688,0,0,0-1.732,6.282,49.12,49.12,0,0,0-.1,10.085c.488,8.108-.091,9.1-2.583,9.521-.058.01-.106.016-.145.02-.608-.782-1.233-3.565-1.615-5.263-.747-3.322-1.593-7.088-3.719-10.112a11.947,11.947,0,0,0-10.284-5.125,18.141,18.141,0,0,0-2.111.127,25.87,25.87,0,0,0-2.784.57c-2.609.621-8.037,1.914-10.262.393-.43-.295-1.03-.885-1.268-2.611-.476-3.451-3.76-4.179-4.84-4.418a6.735,6.735,0,0,1-.914-.244,4.9,4.9,0,0,1-.226-2.028c.044-1.473-.366-4.958-5.113-5.5l-.214-.025a6.631,6.631,0,0,1-.326-1.507c-.142-1.164-.649-2.459-2.528-4.092h48.314a14.86,14.86,0,0,0,1.351,3.5,18.3,18.3,0,0,1,1.4,3.464C176.791,160.977,176.389,162.034,175.508,164.35Zm29.674-36.3a.711.711,0,0,1-.17.125c-1.473.875-2.434.579-6.048-1.862-3.455-2.333-8.675-5.86-15.028-2.054-4.8,2.877-3.155,7.7-2.363,10.011.7,2.059,1.1,3.395.441,4.711a8.432,8.432,0,0,1-1.32.457,10.625,10.625,0,0,0-5.594,3.253H110.041a51.763,51.763,0,0,0-7.567-2.36c-1.489-.306-5.445-1.119-7.245,1.974a3.768,3.768,0,0,1-.234.359c-1.142-.414-3.508-2.435-4.971-3.685-3.685-3.148-7.832-6.691-12.732-6.925a15.343,15.343,0,0,1-3.18-3.244c2.358-2.283,1.8-5.343,1.533-6.66a17.588,17.588,0,0,1,3.173-.415c3.177-.188,6.106-1.879,8.471-4.891a24.875,24.875,0,0,0,4.792-13.989H200.245c.314.81.652,1.564.956,2.247a15.087,15.087,0,0,1,1.264,3.478c-3.212,3.707-1.1,8.653.761,13.021.7,1.65,2.352,5.516,1.955,6.45Z" transform="translate(0 0)"/>
          </g>
          <g id="Grupo_1177212" data-name="Grupo 1177212" transform="translate(1024.711 1372.883)">
            <g id="Grupo_1177196" data-name="Grupo 1177196" transform="translate(3.212 3.708)">
              <path id="Trazado_992338" data-name="Trazado 992338" d="M87.809,10.538,10.17,47.065H165.448Z" transform="translate(-10.17 -10.538)" fill="#e6dfe1" fill-rule="evenodd"/>
            </g>
            <g id="Grupo_1177197" data-name="Grupo 1177197" transform="translate(3.212 40.235)">
              <path id="Trazado_992339" data-name="Trazado 992339" d="M165.448,126.187H10.17v16.758H165.448Z" transform="translate(-10.17 -126.187)" fill="#fff" fill-rule="evenodd"/>
            </g>
            <g id="Grupo_1177198" data-name="Grupo 1177198" transform="translate(8.181 56.993)">
              <path id="Trazado_992340" data-name="Trazado 992340" d="M66.244,179.246H25.9v10.032a4.368,4.368,0,0,0,4.36,4.359H61.874a4.376,4.376,0,0,0,4.369-4.359V179.246Z" transform="translate(-25.902 -179.246)" fill="#e6dfe1" fill-rule="evenodd"/>
            </g>
            <g id="Grupo_1177199" data-name="Grupo 1177199" transform="translate(113.188 56.993)">
              <path id="Trazado_992341" data-name="Trazado 992341" d="M398.712,179.246H358.371v10.032a4.37,4.37,0,0,0,4.369,4.359h31.6a4.376,4.376,0,0,0,4.369-4.359Z" transform="translate(-358.371 -179.246)" fill="#e6dfe1" fill-rule="evenodd"/>
            </g>
            <g id="Grupo_1177200" data-name="Grupo 1177200" transform="translate(28.352 71.384)">
              <path id="Trazado_992342" data-name="Trazado 992342" d="M89.765,224.809h14.369v56.224H89.765Z" transform="translate(-89.765 -224.809)" fill="#fff" fill-rule="evenodd"/>
            </g>
            <g id="Grupo_1177201" data-name="Grupo 1177201" transform="translate(13.973 71.384)">
              <path id="Trazado_992343" data-name="Trazado 992343" d="M44.242,224.809H58.62v56.224H44.242Z" transform="translate(-44.242 -224.809)" fill="#fff" fill-rule="evenodd"/>
            </g>
            <g id="Grupo_1177202" data-name="Grupo 1177202" transform="translate(80.851 99.496)">
              <path id="Trazado_992344" data-name="Trazado 992344" d="M255.986,313.816v42.5h18.4v-40a2.511,2.511,0,0,0-2.507-2.5Z" transform="translate(-255.986 -313.816)" fill="#e6dfe1" fill-rule="evenodd"/>
            </g>
            <g id="Grupo_1177203" data-name="Grupo 1177203" transform="translate(62.462 99.496)">
              <path id="Trazado_992345" data-name="Trazado 992345" d="M197.763,316.317v40h18.389v-42.5H200.261A2.5,2.5,0,0,0,197.763,316.317Z" transform="translate(-197.763 -313.816)" fill="#e6dfe1" fill-rule="evenodd"/>
            </g>
            <g id="Grupo_1177204" data-name="Grupo 1177204" transform="translate(118.981 71.384)">
              <path id="Trazado_992346" data-name="Trazado 992346" d="M376.711,224.809h14.378v56.224H376.711Z" transform="translate(-376.711 -224.809)" fill="#fff" fill-rule="evenodd"/>
            </g>
            <g id="Grupo_1177205" data-name="Grupo 1177205" transform="translate(133.359 71.384)">
              <path id="Trazado_992347" data-name="Trazado 992347" d="M422.235,224.809H436.6v56.224H422.235Z" transform="translate(-422.235 -224.809)" fill="#fff" fill-rule="evenodd"/>
            </g>
            <g id="Grupo_1177206" data-name="Grupo 1177206" transform="translate(113.188 127.608)">
              <path id="Trazado_992348" data-name="Trazado 992348" d="M378.542,402.822h-15.8a4.376,4.376,0,0,0-4.369,4.359v10.032h40.342V407.181a4.382,4.382,0,0,0-4.369-4.359h-15.8Z" transform="translate(-358.371 -402.822)" fill="#e6dfe1" fill-rule="evenodd"/>
            </g>
            <g id="Grupo_1177207" data-name="Grupo 1177207" transform="translate(3.158 141.999)">
              <path id="Trazado_992349" data-name="Trazado 992349" d="M160.372,448.386H10v16.758H165.358V448.386Z" transform="translate(-10 -448.386)" fill="#fff" fill-rule="evenodd"/>
            </g>
            <g id="Grupo_1177208" data-name="Grupo 1177208" transform="translate(8.181 127.608)">
              <path id="Trazado_992350" data-name="Trazado 992350" d="M60.443,402.822H30.263a4.374,4.374,0,0,0-4.36,4.359v10.032H66.245V407.181a4.382,4.382,0,0,0-4.369-4.359Z" transform="translate(-25.903 -402.822)" fill="#e6dfe1" fill-rule="evenodd"/>
            </g>
            <g id="Grupo_1177209" data-name="Grupo 1177209" transform="translate(42.721 56.993)">
              <path id="Trazado_992351" data-name="Trazado 992351" d="M205.728,179.246H141.062v10.032a4.376,4.376,0,0,1-4.369,4.359h-1.432v56.224h1.432a4.382,4.382,0,0,1,4.369,4.359v10.032H155v-40a2.5,2.5,0,0,1,2.5-2.5h31.782a2.511,2.511,0,0,1,2.507,2.5v40h13.94V254.22a4.376,4.376,0,0,1,4.369-4.359h1.423V193.637H210.1a4.37,4.37,0,0,1-4.369-4.359V179.246ZM173.391,210.27a9.768,9.768,0,1,1,9.794-9.772,9.778,9.778,0,0,1-9.794,9.772Z" transform="translate(-135.261 -179.246)" fill="#cdc0c4" fill-rule="evenodd"/>
            </g>
            <g id="Grupo_1177210" data-name="Grupo 1177210" transform="translate(71.066 68.481)">
              <path id="Trazado_992352" data-name="Trazado 992352" d="M234.789,215.617a9.768,9.768,0,1,0,9.794,9.764A9.77,9.77,0,0,0,234.789,215.617Z" transform="translate(-225.004 -215.617)" fill="#e6dfe1" fill-rule="evenodd"/>
            </g>
            <g id="Grupo_1177211" data-name="Grupo 1177211" transform="translate(0 0.555)">
              <path id="Trazado_992353" data-name="Trazado 992353" d="M158.553,138.841h-1.864v-6.873a7.531,7.531,0,0,0-5.8-7.316V74.341a7.531,7.531,0,0,0,5.8-7.316V60.152h1.8a3.159,3.159,0,0,0,3.158-3.158V40.235a3.2,3.2,0,0,0-1.814-2.858L82.2.854a3.213,3.213,0,0,0-2.7,0L1.868,37.377A3.2,3.2,0,0,0,.054,40.235V56.993a3.159,3.159,0,0,0,3.158,3.158h1.81v6.873a7.529,7.529,0,0,0,5.793,7.316v50.311a7.529,7.529,0,0,0-5.793,7.315v6.873H3.158A3.159,3.159,0,0,0,0,142v16.758a3.159,3.159,0,0,0,3.158,3.158H158.553a3.159,3.159,0,0,0,3.158-3.158V142a3.158,3.158,0,0,0-3.158-3.158Zm-42.206,0v-6.873a1.222,1.222,0,0,1,1.211-1.2h31.6a1.222,1.222,0,0,1,1.211,1.2v6.873Zm-13.939,0V102a5.669,5.669,0,0,0-5.665-5.66H64.96A5.664,5.664,0,0,0,59.3,102V138.84H51.681v-6.873a7.531,7.531,0,0,0-5.8-7.316V74.341a7.531,7.531,0,0,0,5.8-7.316V60.151H110.03v6.873a7.531,7.531,0,0,0,5.793,7.314v50.315a7.532,7.532,0,0,0-5.793,7.314v6.873h-7.623Zm-18.4,0V102.655H96.091v36.186Zm-18.389,0V102.655H77.693v36.186ZM31.51,124.45V74.543h8.052V124.45H31.51Zm-14.378,0V74.543h8.062V124.45H17.132ZM6.371,53.835V43.393h60.3a3.158,3.158,0,1,0,0-6.317H17.345L80.851,7.2l63.506,29.878H95.032a3.158,3.158,0,1,0,0,6.317h60.3V53.835ZM130.2,74.543V124.45h-8.061V74.543Zm14.37,0V124.45h-8.053V74.543Zm5.8-7.518a1.222,1.222,0,0,1-1.211,1.2h-31.6a1.207,1.207,0,0,1-1.211-1.2V60.152h34.025ZM45.364,60.152v6.873a1.222,1.222,0,0,1-1.211,1.2H12.541a1.2,1.2,0,0,1-1.2-1.2V60.152ZM11.339,131.967a1.217,1.217,0,0,1,1.2-1.2H44.153a1.222,1.222,0,0,1,1.211,1.2v6.873H11.339ZM155.394,155.6H6.317V145.157H155.394Z" transform="translate(0 -0.555)"/>
              <path id="Trazado_992354" data-name="Trazado 992354" d="M227.948,205.617A12.926,12.926,0,1,0,240.9,218.539,12.948,12.948,0,0,0,227.948,205.617Zm0,19.536a6.61,6.61,0,1,1,6.636-6.614A6.628,6.628,0,0,1,227.948,225.153Z" transform="translate(-147.097 -140.85)"/>
              <path id="Trazado_992355" data-name="Trazado 992355" d="M249.135,122.5a3.158,3.158,0,0,0,0-6.317h-.009a3.158,3.158,0,0,0,.009,6.317Z" transform="translate(-168.284 -79.666)"/>
            </g>
          </g>
          <path id="Trazado_992357" data-name="Trazado 992357" d="M84.561,34.343c6.332-4.418,12.944-8.386,19.445-12.522,6.163-3.911,12.888-7.148,19.051-11.059-.535.732-1.126,1.548-1.576,2.223-2,3.011-4.193,5.825-5.375,9.258-1.323,3.743,4.024,6.754,6.641,3.855,2.617-2.842,4.137-6.5,5.938-9.905,1.829-3.489,3.8-6.894,5.741-10.327A3.937,3.937,0,0,0,131.077.012c-4.615-.141-9.483.929-14.014,1.745S108,3.5,103.921,5.753c-2.336,1.266-1.126,4.671,1.294,4.784,4.305.2,8.583-.675,12.832-1.266-3.771,1.66-7.485,3.518-11.143,5.262-5.825,2.786-11.509,5.684-17.053,9.033A224.326,224.326,0,0,0,57.969,46.5c-18.854,16.49-34.95,36.413-45.981,58.954C5.994,117.722.422,131.286,0,145.075c-.056,2,2.673,2.139,3.321.45,5.459-14.492,9.54-29.125,17.081-42.8a180.47,180.47,0,0,1,27.38-37.117A243.64,243.64,0,0,1,84.561,34.343" transform="translate(1016.37 1173.73) rotate(70)" fill="#98c113"/>
          <path id="Trazado_992358" data-name="Trazado 992358" d="M76.868,102.127c5.756,4.016,11.767,7.623,17.676,11.383,5.6,3.556,11.716,6.5,17.318,10.053-.486-.665-1.023-1.407-1.432-2.021-1.816-2.737-3.811-5.3-4.886-8.416-1.2-3.4,3.658-6.139,6.037-3.5,2.379,2.584,3.76,5.909,5.4,9,1.663,3.172,3.453,6.267,5.218,9.388a3.579,3.579,0,0,1-3.044,5.321c-4.2.128-8.621-.844-12.739-1.586s-8.237-1.586-11.946-3.632c-2.123-1.151-1.023-4.246,1.177-4.349,3.914-.179,7.8.614,11.665,1.151-3.428-1.509-6.8-3.2-10.13-4.784-5.3-2.532-10.462-5.167-15.5-8.211A203.918,203.918,0,0,1,52.7,91.076c-17.139-14.99-31.771-33.1-41.8-53.591C5.448,26.333.383,14,0,1.469-.051-.347,2.43-.475,3.018,1.06,7.981,14.233,11.69,27.535,18.545,39.967a164.053,164.053,0,0,0,24.89,33.74,221.476,221.476,0,0,0,33.433,28.42" transform="translate(716.71 1223.084) rotate(106)" fill="#98c113"/>
          <path id="Trazado_992359" data-name="Trazado 992359" d="M67.01,25.462c2.739-2.482,4.194-6.249,5.963-9.473,1.912-3.51,3.709-7.048,5.478-10.643.827-1.683-.143-4.251-2.34-4.052-3.681.314-7.361.742-11.042,1.255-3.452.485-7.447.571-10.3,2.682A.915.915,0,0,0,55,6.887c3.11,1.056,6.62.143,9.844-.057.685-.029,1.4,0,2.111-.029Q51.332,16.388,35.539,25.576q-9.2,5.35-18.4,10.614C11.543,39.386,4.752,42.268.5,47.2A1.829,1.829,0,0,0,2.27,50.228c6.42-1.027,12.5-5.336,18.118-8.474,6.163-3.481,12.326-6.962,18.461-10.5C47.608,26.2,56.311,21.039,65.013,15.9a21.369,21.369,0,0,0-3.338,6.448c-.856,3.167,3.024,5.221,5.336,3.11" transform="translate(846.41 1280.802) rotate(120)" fill="#98c113"/>
        </g>
      </g>
    </g>
  </g>
</svg>
