<svg xmlns="http://www.w3.org/2000/svg" width="46.953" height="39" viewBox="0 0 46.953 39">
  <g id="Grupo_1177050" data-name="Grupo 1177050" transform="translate(-203.711 -23352.215)">
    <rect id="Rectángulo_454633" data-name="Rectángulo 454633" width="46.953" height="39" transform="translate(203.711 23352.215)" fill="#634900"/>
    <g id="Grupo_1177049" data-name="Grupo 1177049" transform="translate(210.875 23355.35)">
      <path id="Trazado_992263" data-name="Trazado 992263" d="M165.991,20.788a10.479,10.479,0,0,0,9.8-7.019,10.445,10.445,0,0,0-.936-8.723.478.478,0,1,0-.819.494,9.55,9.55,0,0,1,.929,2.058l-1.518-.636a1.354,1.354,0,0,0-1.6.428l-.884,1.16a.4.4,0,0,1-.445.135l-.715-.245a1.345,1.345,0,0,0-1.034.065l-1.11.544a1.387,1.387,0,0,0,.156,2.5l.974.335a.4.4,0,0,1,.228.2l.692,1.411a1.348,1.348,0,0,0,1.2.758l1.665.025a.4.4,0,0,1,.348.216l.721,1.4a9.521,9.521,0,0,1-4.2,3.274c-.052-.077-.267-.413-.226-.532l.4-1.164a1.09,1.09,0,0,0-.053-.838l-1.247-2.543a1.1,1.1,0,0,0-1.468-.5,9.656,9.656,0,0,1-1.579.748l-3.911-.523c-.163-.022-.361-.43-.17-.524a1.1,1.1,0,0,0,.5-1.468l-1.031-2.1c-.134-.273.288-.531.5-.459l1.057.365a1.239,1.239,0,0,0,.944-.058l1.265-.62a1.232,1.232,0,0,0,.563-1.647l-.427-.87a1.233,1.233,0,0,0-1.647-.563.273.273,0,0,1-.286-.027l-1.486-1.111a1.229,1.229,0,0,0-1.264-.126l-1.963.93a9.67,9.67,0,0,1,5.151-4.085,1.853,1.853,0,0,0,.979,2.338l.906.306a.471.471,0,0,1,.27.237l.659,1.344a1.416,1.416,0,0,0,1.267.8l.653.005a1.423,1.423,0,0,0,1.289-2.05A.468.468,0,0,1,169.3,3.8l2.158-1.059a9.55,9.55,0,0,1,1.385,1.217.478.478,0,1,0,.7-.654,10.505,10.505,0,0,0-12.135-2.21,10.377,10.377,0,0,0,4.586,19.694Zm7.779-6.732a1.351,1.351,0,0,0-1.184-.736l-1.665-.025a.4.4,0,0,1-.351-.222l-.692-1.411a1.345,1.345,0,0,0-.775-.684l-.974-.335a.407.407,0,0,1-.046-.733l1.11-.544a.4.4,0,0,1,.3-.019l.715.245a1.352,1.352,0,0,0,1.515-.46l.884-1.16a.4.4,0,0,1,.47-.126l2.172.91a9.487,9.487,0,0,1-1.022,6.2ZM170.509,2.141l-1.631.8a1.425,1.425,0,0,0-.651,1.9.5.5,0,0,1-.423.673l-.653-.005a.465.465,0,0,1-.416-.262l-.659-1.344a1.433,1.433,0,0,0-.823-.722l-.906-.306a.915.915,0,0,1-.434-1l.384-.751a9.341,9.341,0,0,1,6.212,1.008ZM157.225,6.918l3.058-1.449a.274.274,0,0,1,.282.028l1.486,1.111a1.227,1.227,0,0,0,1.279.119.275.275,0,0,1,.368.126l.427.87a.275.275,0,0,1-.126.368l-1.265.62a.276.276,0,0,1-.211.013l-1.057-.365a1.351,1.351,0,0,0-1.667,1.784l1.031,2.1a.141.141,0,0,1-.064.188,1.1,1.1,0,0,0-.5,1.468l.127.259a1.1,1.1,0,0,0,.839.6l3.911.523a1.092,1.092,0,0,0,.628-.1l1.5-.735a.141.141,0,0,1,.188.064l1.247,2.543c.128.261-.284,1.011-.391,1.271a1.451,1.451,0,0,0,.215,1.152,9.341,9.341,0,0,1-2.536.351,9.435,9.435,0,0,1-8.474-5.272,10.336,10.336,0,0,1-.291-7.642Z" transform="translate(-145.701 0)" fill="#f8b700"/>
      <path id="Trazado_992264" data-name="Trazado 992264" d="M32.107,320.909a2.377,2.377,0,0,0-3.335-.314l-4.556,3.811a2.366,2.366,0,0,0-2.307-1.855H17.039a3.209,3.209,0,0,1-1.935-.635,5.586,5.586,0,0,0-7.376.635H5.648v-.885a.478.478,0,0,0-.478-.478H.478a.478.478,0,0,0-.478.478v10.126a.478.478,0,0,0,.478.478H5.17a.478.478,0,0,0,.478-.478v-.873H7.871l3.514,1.056a6.955,6.955,0,0,0,2.006.3H21.2a3.7,3.7,0,0,0,2.438-.917l2.831-2.479a.478.478,0,1,0-.63-.719l-2.831,2.479a2.742,2.742,0,0,1-1.808.68H13.39a6,6,0,0,1-1.73-.255l-3.581-1.077s-1.705-.02-2.43-.02v-2.227a.478.478,0,1,0-.956,0v3.578H.956v-9.169H4.692v3.507a.478.478,0,1,0,.956,0v-2.144H7.941a.478.478,0,0,0,.362-.166,4.656,4.656,0,0,1,6.222-.664,4.17,4.17,0,0,0,2.514.83h4.869a1.406,1.406,0,0,1,0,2.811H15.754a.478.478,0,1,0,0,.956h6.154a2.409,2.409,0,0,0,2.216-1.545l5.261-4.4a1.4,1.4,0,0,1,1.982.187,1.446,1.446,0,0,1-.16,1.941l-3.8,3.326a.478.478,0,1,0,.63.719l3.8-3.326A2.4,2.4,0,0,0,32.107,320.909Z" transform="translate(0 -299.597)" fill="#f8b700"/>
    </g>
  </g>
</svg>
