<svg xmlns="http://www.w3.org/2000/svg" width="96" height="96" viewBox="0 0 96 96">
  <g id="Grupo_154427" data-name="Grupo 154427" transform="translate(-794.039 -2920.081)">
    <path id="Elipse_5729" data-name="Elipse 5729" d="M48,0A48,48,0,1,1,0,48,48,48,0,0,1,48,0Z" transform="translate(794.039 2920.081)" fill="#634900"/>
    <g id="Grupo_1177448" data-name="Grupo 1177448" transform="translate(734.544 2928.102)">
      <path id="Trazado_992852" data-name="Trazado 992852" d="M266.083,16.914a.87.87,0,0,0-1.665.17A18.423,18.423,0,0,1,257.134,29a19.6,19.6,0,0,0-3.143,2.958,9.535,9.535,0,0,0-5.118-5.6.867.867,0,0,0-.851,1.494c.28.061.385,1.509.272,2.31a4.209,4.209,0,0,0,4.112,5.085c-.226,1.194.223,4.882,1.678,5a.871.871,0,0,0,.717-1.349c-1.436-2.519-.668-4.939,1.582-6.976,3.787-3.12,6.861-5.69,8.646-10.471a9.5,9.5,0,0,1-5.053,7.771.865.865,0,0,0,.376,1.632,11.86,11.86,0,0,0,10.395-6.212c4.133-7.526-.147-17.143-7.754-21.071a.87.87,0,0,0-1.169,1.187,5.3,5.3,0,0,1,.352,4.977c-.946,1.812-3.222,2.847-4.784,4.252a11.265,11.265,0,0,0-1.974,14.512.865.865,0,0,0,1.447-.947,9.52,9.52,0,0,1,1.668-12.266c3.113-2.451,6.544-4.1,5.718-8.854,7.937,5.349,9.106,18.471-.6,22.158a11.237,11.237,0,0,0,2.431-11.665ZM250.03,31.688a19.012,19.012,0,0,1,.04-2.569,7.284,7.284,0,0,1,2.468,4.4A2.569,2.569,0,0,1,250.03,31.688Z" transform="translate(-144.785)" fill="#fff"/>
      <path id="Trazado_992853" data-name="Trazado 992853" d="M100.617,103.211a.867.867,0,0,0,.965-.539,6.062,6.062,0,0,1,2.395-3.332c3.313-1.422,6.923,1.9,10.421.506,2.876-1.029,4.086-4.321,3.786-7.289a10.509,10.509,0,0,1,6.045,4.993.865.865,0,1,0,1.53-.809,12.267,12.267,0,0,0-8.225-6.14,4.871,4.871,0,0,0-2.3-1.328C107.3,86.8,99.729,94.435,99.911,102.364a.865.865,0,0,0,.708.848Zm4.994-10.047a9.892,9.892,0,0,1,7.3-2.576,12.141,12.141,0,0,0-6.7,3.777.865.865,0,0,0,1.29,1.152,10.4,10.4,0,0,1,8.9-3.353c.333,2.307-.267,5.21-2.6,6.057-3.565,1.122-7.752-2.87-11.5.164a12.539,12.539,0,0,1,3.3-5.22Z" transform="translate(-18.326 -73.043)" fill="#fff"/>
      <path id="Trazado_992854" data-name="Trazado 992854" d="M141.982,214.069c1.446.027,1.414-1.564,1.7-2.572.268-1.266-.962-1.577-1.795-2.109l-.107-.887.865-.861a1.317,1.317,0,0,0,.371-1.645c-.52-.917-.874-2.481-2.279-2.089l-1.181.212-.646-.6.115-1.22a1.317,1.317,0,0,0-.774-1.5c-2.274-.952-2.253-1.257-3.861.791l-.885-.049-.683-1.009c-.692-1.283-2.072-.45-3.091-.193-1.244.415-.879,1.639-.934,2.641l-.7.529c-.966-.238-2.056-.923-2.784.157-1.347,2.095-1.606,1.988.1,3.962l-.2.859-1.1.482c-1.383.457-.81,1.955-.731,3a1.321,1.321,0,0,0,1.224,1.159l1.2.236.4.79-.526,1.068c-.763,1.237.642,2.016,1.374,2.77.962.858,1.848-.048,2.739-.482l.82.35.294,1.153c.216,1.436,1.782,1.129,2.829,1.234,1.3.037,1.38-1.211,1.785-2.127l.851-.258.976.692c1.087.962,2.09-.28,2.958-.869,1.021-.8.283-1.822-.006-2.771l.484-.74,1.207-.105Zm-2.553-1c-1.132,1.688-1.129,1.511-.415,3.413l-.779.584c-1.645-1.208-1.463-1.162-3.405-.549a1.39,1.39,0,0,0-.939,1l-.376.986-.973-.052c-.222-.73-.245-1.8-1.087-2.111-1.883-.826-1.675-.838-3.453.176l-.712-.666c.936-1.808.892-1.652-.04-3.444a1.371,1.371,0,0,0-1.142-.745l-1.055-.208-.117-.967c1.877-.783,1.757-.662,2.2-2.648.254-.879-.618-1.534-1.077-2.155l.532-.82c1.968.617,1.778.62,3.405-.626a1.385,1.385,0,0,0,.532-1.264l0-1.076.939-.285c.464.617.845,1.632,1.757,1.639,2.041.133,1.884.226,3.167-1.37l.9.381-.1,1.076a1.376,1.376,0,0,0,.4,1.312c1.475,1.4,1.3,1.38,3.3.983l.44.868c-1.479,1.433-1.41,1.227-1.142,3.274.066.911,1.087,1.215,1.734,1.631l-.221.949-1.063.092a1.372,1.372,0,0,0-1.215.623Z" transform="translate(-38.252 -168.067)" fill="#fff"/>
      <path id="Trazado_992855" data-name="Trazado 992855" d="M164.148,234.95c-6.773.177-6.772,10.1,0,10.274C170.921,245.046,170.92,235.127,164.148,234.95Zm0,8.544a3.407,3.407,0,0,1,0-6.814A3.407,3.407,0,0,1,164.148,243.494Z" transform="translate(-68.957 -198.125)" fill="#fff"/>
      <path id="Trazado_992856" data-name="Trazado 992856" d="M331.42,205.051l-.833.271-.445-.314c-.043-.861.115-1.87-.941-2.176-1.876-.509-2.1-.779-3.139,1.054l-.544.045c-1.354-1.635-1.5-1.347-3.283-.526-1,.47-.676,1.446-.568,2.3l-.385.382c-.856-.13-1.818-.454-2.3.536-.839,1.779-1.112,1.915.489,3.291l-.05.541c-1.851,1.024-1.579,1.243-1.089,3.127.3,1.06,1.3.907,2.158.97l.313.451c-.747,1.961-.391,1.962,1.182,3.08.894.623,1.579-.13,2.268-.634l.535.146.326.8c.373,1.221,1.623.843,2.568.789,1.086-.108,1.122-1.1,1.322-1.941l.5-.231c.761.392,1.55,1.014,2.334.261.66-.682,1.762-1.393,1.07-2.465l-.4-.767.236-.5c.838-.2,1.844-.219,1.961-1.308.068-.947.454-2.2-.768-2.576l-.8-.327-.14-.535c.512-.688,1.28-1.365.668-2.268-.556-.77-1.063-1.974-2.242-1.484Zm-.157,3.965c.381,1.5.3,1.613,1.805,2.161l-.05.535c-.618.147-1.462.2-1.736.885-.675,1.385-.8,1.424-.014,2.81l-.383.378c-1.388-.791-1.411-.675-2.814-.016-.692.268-.755,1.1-.9,1.723l-.539.045c-.539-1.5-.647-1.423-2.134-1.817-.7-.244-1.3.359-1.812.737l-.44-.311c.571-1.5.412-1.524-.471-2.781-.394-.631-1.225-.533-1.861-.581l-.136-.519c1.4-.78,1.308-.874,1.44-2.424.11-.738-.594-1.211-1.06-1.651l.231-.489c1.58.307,1.577.164,2.67-.936.558-.5.317-1.308.238-1.943l.495-.228c.431.476.9,1.185,1.638,1.08,1.544-.111,1.645-.025,2.441-1.411l.519.141c.033.644-.068,1.476.567,1.881,1.249.9,1.279,1.039,2.774.486l.306.443c-.382.513-1,1.093-.767,1.8Z" transform="translate(-204.95 -170.315)" fill="#fff"/>
      <path id="Trazado_992857" data-name="Trazado 992857" d="M352.031,233.533c-5.184.852-4.115,8.451,1.073,7.87A3.972,3.972,0,0,0,352.031,233.533Zm2.321,5.291a2.242,2.242,0,1,1-2.088-3.577A2.253,2.253,0,0,1,354.352,238.824Z" transform="translate(-231.195 -196.889)" fill="#fff"/>
      <path id="Trazado_992858" data-name="Trazado 992858" d="M79.844,337.906c4.278-2.971,9.82-6.841,14.744-2.145a12.941,12.941,0,0,0,5.029,2.746c3.454.92,6.754.618,10.275.933.988.1,2.278,0,2.945.582a1.858,1.858,0,0,1,.613,2.19c-.293.5-.937.823-2.086,1.061-5.833,1.432-11.433-1.587-17.295-.522a.865.865,0,0,0,.324,1.7,22.153,22.153,0,0,1,7.657.353c3.153.626,13.251,1.733,13.284-3.209,1.217-.959,2.454-1.861,3.578-2.608,3.424-2.108,4.484-2.993,6.8-1.749-3.043,3.364-6.827,6.576-10.262,9.72a5.339,5.339,0,0,1-1.407,1,5.4,5.4,0,0,1-2.148.2c-5.872-.326-11.839-.127-17.665-1.076-1.7-.311-3.359-.767-4.619-1.13a4.3,4.3,0,0,0-2.648-.151,4.2,4.2,0,0,0-1.486,1.035L81.854,350.3a.865.865,0,0,0,1.2,1.25l3.626-3.467c.754-.859,1.394-.82,2.458-.47,1.3.375,3.018.846,4.788,1.171,5.959.977,11.927.771,17.913,1.1a5.533,5.533,0,0,0,4.765-1.626c3.534-3.123,7.017-6.381,10.352-9.685a1.777,1.777,0,0,0,.523-1.416c-.231-1.883-2.846-2.372-4.518-2.132.838-1.032,2.9-2.35,2.65-3.87a2.2,2.2,0,0,0-1.584-1.644,7.084,7.084,0,0,0-6.123,1.086c.386-.587,1.073-.949,1.091-1.779-.36-1.757-3.284-2.235-4.91-1.664-2.683.921-4.272,3.1-5.9,4.919.509-.9,1.042-1.844,1.52-2.732a1.516,1.516,0,0,0,.01-1.413c-.96-1.713-4.448-.6-5.623.4a12.529,12.529,0,0,0-2.961,4.064,1.043,1.043,0,0,1-.708.647l-4.341,1.7c-3.1-2.832-6.534-3.793-10.891-2a29.294,29.294,0,0,0-5.246,3.029c-.621.458-1.879.939-1.292,1.9a.865.865,0,0,0,1.2.245Zm39.726-6.284c1.485-.738,3.241-1.035,4.325-.2,0,.013.007.14-.424.584-1.841,1.892-3.727,3.859-5.654,5.63-.959.642-1.956,1.362-2.976,2.148-1.032-1.985-3.159-1.988-5-2.088a24.717,24.717,0,0,1,5.431-2.866c1.472-1.055,2.736-2.436,4.3-3.211Zm-9.866,1.326c1.615-1.822,4.368-5.4,7.294-3.979-1.582,1.981-3.064,3.521-4.37,5.118a20.133,20.133,0,0,0-5.36,3.475c-1.172-.043-2.376-.069-3.515-.151.954-.7,1.9-1.462,2.881-2.108.569-.369,1.086-.555,1.648-.947A7.657,7.657,0,0,0,109.7,332.948Zm-8.656,1.7c2.533-.768,2.191-5.905,6.974-5.84-.949,1.8-2.167,3.7-2.994,5.5-1.23.943-2.532,1.809-3.708,2.811a10.973,10.973,0,0,1-3.519-1.2l3.25-1.27Z" transform="translate(0 -276.838)" fill="#fff"/>
    </g>
  </g>
</svg>
