<svg xmlns="http://www.w3.org/2000/svg" width="84" height="84" viewBox="0 0 84 84">
  <g id="Grupo_1177189" data-name="Grupo 1177189" transform="translate(-329.059 -6231)">
    <rect id="Rectángulo_454606" data-name="Rectángulo 454606" width="84" height="84" rx="20" transform="translate(329.059 6231)" fill="#ff974d"/>
    <g id="Grupo_1177352" data-name="Grupo 1177352" transform="translate(340.48 6242.039)">
      <g id="Grupo_1177351" data-name="Grupo 1177351" transform="translate(0 0.898)">
        <path id="Trazado_992659" data-name="Trazado 992659" d="M162.3,29.31H133.215a2.215,2.215,0,1,1,0-4.429H162.3a2.215,2.215,0,1,1,0,4.429Z" transform="translate(-115.319 -22.8)" fill="#efe7e4"/>
        <path id="Trazado_992660" data-name="Trazado 992660" d="M366.091,24.881H362.5a2.215,2.215,0,0,1,0,4.429h3.591a2.215,2.215,0,0,0,0-4.429Z" transform="translate(-319.107 -22.8)" fill="#dad0cb"/>
        <path id="Trazado_992661" data-name="Trazado 992661" d="M0,0H8.784V4.3H0Z" transform="translate(30.292 15.579) rotate(-90)" fill="#f9f6f6"/>
        <path id="Trazado_992662" data-name="Trazado 992662" d="M24.839,158.8V148.381H.718A.718.718,0,0,0,0,149.1v8.978a.718.718,0,0,0,.718.718Z" transform="translate(0 -131.517)" fill="#efe7e4"/>
        <path id="Trazado_992663" data-name="Trazado 992663" d="M334.5,148.381H345a8.056,8.056,0,0,1,8.056,8.056v14.329H342.64V160.08a1.285,1.285,0,0,0-1.285-1.285H334.5Z" transform="translate(-294.459 -131.517)" fill="#efe7e4"/>
        <path id="Trazado_992664" data-name="Trazado 992664" d="M395.794,148.381H392.2a8.056,8.056,0,0,1,8.056,8.056V168.97h3.591V156.437A8.056,8.056,0,0,0,395.794,148.381Z" transform="translate(-345.254 -131.517)" fill="#dad0cb"/>
        <path id="Trazado_992665" data-name="Trazado 992665" d="M388.412,323.972h12.181a.912.912,0,0,0,.912-.912v-1.767a.912.912,0,0,0-.912-.912H388.412a.912.912,0,0,0-.912.912v1.767A.912.912,0,0,0,388.412,323.972Z" transform="translate(-341.114 -282.928)" fill="#8b818e"/>
        <path id="Trazado_992666" data-name="Trazado 992666" d="M470.471,320.381H466.88a.912.912,0,0,1,.912.912v1.767a.912.912,0,0,1-.912.912h3.591a.912.912,0,0,0,.912-.912v-1.767A.912.912,0,0,0,470.471,320.381Z" transform="translate(-410.992 -282.928)" fill="#756e78"/>
        <path id="Trazado_992667" data-name="Trazado 992667" d="M92.5,135.177v10.414a1.8,1.8,0,0,0,3.591,0V135.177a1.8,1.8,0,1,0-3.591,0Z" transform="translate(-81.427 -118.312)" fill="#8b818e"/>
        <path id="Trazado_992668" data-name="Trazado 992668" d="M233.358,16.09h5.851a1.8,1.8,0,0,0,1.8-1.8v-5a1.8,1.8,0,0,0-1.8-1.8h-5.851a1.8,1.8,0,0,0-1.8,1.8v5A1.8,1.8,0,0,0,233.358,16.09Z" transform="translate(-203.843 -7.5)" fill="#8b818e"/>
        <path id="Trazado_992669" data-name="Trazado 992669" d="M269.029,7.5h-3.591a1.8,1.8,0,0,1,1.8,1.8v5a1.8,1.8,0,0,1-1.8,1.8h3.591a1.8,1.8,0,0,0,1.8-1.8v-5A1.8,1.8,0,0,0,269.029,7.5Z" transform="translate(-233.664 -7.5)" fill="#756e78"/>
        <path id="Trazado_992670" data-name="Trazado 992670" d="M399.028,396.588a5.623,5.623,0,0,0,11.246,0c0-2.707-4.277-7.105-5.371-8.186a.358.358,0,0,0-.5,0C403.305,389.483,399.028,393.881,399.028,396.588Z" transform="translate(-351.262 -342.715)" fill="#ecf5ff"/>
        <path id="Trazado_992671" data-name="Trazado 992671" d="M432.544,388.4c-.312.309-.885.889-1.544,1.622,1.645,1.834,3.827,4.63,3.827,6.563A5.622,5.622,0,0,1,431,401.914a5.623,5.623,0,0,0,7.418-5.326c0-2.707-4.277-7.105-5.371-8.185A.358.358,0,0,0,432.544,388.4Z" transform="translate(-379.407 -342.715)" fill="#cbe0fd"/>
        <path id="Trazado_992672" data-name="Trazado 992672" d="M206.326,139.219H194.281a3.591,3.591,0,0,1-3.591-3.591v-9.394a3.591,3.591,0,0,1,3.591-3.591h12.045a3.591,3.591,0,0,1,3.591,3.591v9.394A3.591,3.591,0,0,1,206.326,139.219Z" transform="translate(-167.863 -108.859)" fill="#8b818e"/>
        <path id="Trazado_992673" data-name="Trazado 992673" d="M294.9,122.641H291.31a3.591,3.591,0,0,1,3.591,3.591v9.394a3.591,3.591,0,0,1-3.591,3.591H294.9a3.591,3.591,0,0,0,3.591-3.591v-9.394A3.591,3.591,0,0,0,294.9,122.641Z" transform="translate(-256.439 -108.858)" fill="#756e78"/>
      </g>
      <path id="Trazado_992674" data-name="Trazado 992674" d="M59.493,37.454v-2.67a.9.9,0,1,0-1.8,0v2.669H49.079V29.461A2.185,2.185,0,0,0,46.9,27.278H42.951V18.66H50.54A7.166,7.166,0,0,1,57.7,25.818v4.777a.9.9,0,0,0,1.8,0V25.818a8.964,8.964,0,0,0-8.954-8.954H42.724a4.5,4.5,0,0,0-4.262-3.081H35.486v-3.4a2.7,2.7,0,0,0,2.5-2.078h9A3.148,3.148,0,0,0,50.1,5.193,3.116,3.116,0,0,0,46.984,2.08h-9A2.7,2.7,0,0,0,35.365,0H29.515a2.7,2.7,0,0,0-2.622,2.08h-9a3.112,3.112,0,0,0,0,6.225h9a2.7,2.7,0,0,0,2.5,2.078v3.4H26.418a4.5,4.5,0,0,0-4.262,3.081H15.407a2.693,2.693,0,0,0-5.078,0H.9a.9.9,0,1,0,0,1.8h9.277v8.619H.9a.9.9,0,1,0,0,1.8h9.432a2.693,2.693,0,0,0,5.078,0h6.749a4.5,4.5,0,0,0,4.262,3.081h1.518a.9.9,0,1,0,0-1.8H26.418a2.7,2.7,0,0,1-2.661-2.279v-.01c.037-.165-.036-9.891,0-10.206V17.86a2.7,2.7,0,0,1,2.662-2.281H38.462a2.7,2.7,0,0,1,2.662,2.281v.006c.139,1.195.121,9.159,0,10.206,0,0,0,.006,0,.01a2.7,2.7,0,0,1-2.661,2.279H32.125a.9.9,0,1,0,0,1.8h6.337a4.5,4.5,0,0,0,4.262-3.081H46.9a.387.387,0,0,1,.387.387v7.994a1.811,1.811,0,0,0-1.8,1.809V41.03a1.812,1.812,0,0,0,1.81,1.81H59.479a1.812,1.812,0,0,0,1.81-1.81V39.263A1.811,1.811,0,0,0,59.493,37.454ZM38.059,3.876h8.925A1.318,1.318,0,0,1,48.3,5.193,1.332,1.332,0,0,1,46.984,6.51H38.059ZM26.821,6.51H17.9a1.317,1.317,0,0,1,0-2.634h8.925ZM13.766,28.176a.9.9,0,0,1-1.8,0V17.762a.9.9,0,0,1,1.8,0Zm8.163-.9H15.562V18.66h6.367Zm11.761-13.5h-2.5v-3.4h2.5ZM29.515,8.59a.9.9,0,0,1-.9-.9v-5a.9.9,0,0,1,.9-.9h5.851a.9.9,0,0,1,.9.9v5a.9.9,0,0,1-.9.9ZM59.493,41.03a.014.014,0,0,1-.014.014H47.3a.014.014,0,0,1-.014-.014V39.263a.014.014,0,0,1,.014-.014H59.479a.014.014,0,0,1,.014.014Zm-5.222,4.916a1.261,1.261,0,0,0-1.766,0c-1.7,1.674-5.638,5.886-5.638,8.824a6.521,6.521,0,0,0,13.041,0C59.909,51.832,55.967,47.621,54.272,45.947Zm-.883,13.547a4.729,4.729,0,0,1-4.725-4.723c0-1.116,1.247-3.645,4.725-7.168,3.479,3.524,4.725,6.052,4.725,7.168A4.729,4.729,0,0,1,53.389,59.493Z"/>
    </g>
  </g>
</svg>
